<svg width="190" height="124" viewBox="0 0 190 124" fill="none" xmlns="http://www.w3.org/2000/svg">
<g clip-path="url(#clip0_636_5)">
<path d="M32.6725 41.2331L26.0062 37.4784C25.9163 33.4612 26.8083 29.4828 28.6049 25.8887C30.1418 32.8645 38.2302 36.1834 41.9621 42.2742C43.1115 44.1827 43.8167 46.3255 44.0254 48.5436C44.2341 50.7618 43.9409 52.9985 43.1677 55.0879L43.6061 60.4965C40.1607 59.4646 36.98 57.698 34.2832 55.3184C31.5863 52.9388 29.4373 50.0029 27.9844 46.7128C27.1876 44.859 26.6274 42.9123 26.317 40.9185C29.4251 41.2492 32.6725 41.2331 32.6725 41.2331Z" fill="#F2F2F2"/>
<path d="M152.508 109.541L152.712 104.945C154.843 103.806 157.22 103.204 159.636 103.192C156.311 105.911 156.726 111.152 154.472 114.808C153.76 115.943 152.802 116.903 151.668 117.618C150.535 118.332 149.255 118.782 147.924 118.934L145.141 120.638C144.759 118.51 144.844 116.323 145.388 114.23C145.933 112.137 146.924 110.187 148.295 108.514C149.073 107.583 149.966 106.754 150.951 106.046C151.618 107.803 152.508 109.541 152.508 109.541Z" fill="#F2F2F2"/>
<path d="M145.34 118.273L142.82 118.273L141.621 108.554L145.34 108.554L145.34 118.273Z" fill="#FFB6B6"/>
<path d="M145.98 120.716L137.855 120.715V120.613C137.856 119.774 138.189 118.97 138.782 118.376C139.375 117.783 140.179 117.45 141.018 117.45L142.502 116.324L145.271 117.45L145.981 117.45L145.98 120.716Z" fill="#2F2E41"/>
<path d="M133.633 118.273L131.113 118.273L129.914 108.554L133.633 108.554L133.633 118.273Z" fill="#FFB6B6"/>
<path d="M134.273 120.716L126.148 120.715V120.613C126.148 119.774 126.482 118.97 127.075 118.376C127.668 117.783 128.472 117.45 129.311 117.45L130.795 116.324L133.564 117.45L134.274 117.45L134.273 120.716Z" fill="#2F2E41"/>
<path d="M132.542 65.1367L148.932 65.5465C152.045 67.2372 152.092 70.8966 151.072 75.2413C151.072 75.2413 151.416 77.8237 150.728 78.5123C150.039 79.2009 149.695 79.2009 150.039 80.406C150.383 81.6111 148.564 83.5794 148.785 83.8004C149.006 84.0213 149.523 85.2264 149.523 85.2264L147.801 95.0394C147.801 95.0394 146.596 112.083 146.252 112.427C145.907 112.772 145.563 112.427 145.907 113.288C146.252 114.149 146.596 113.805 146.252 114.149C145.947 114.478 145.659 114.823 145.391 115.182H141.228C141.228 115.182 140.915 113.46 140.915 113.288C140.915 113.116 140.57 112.083 140.57 111.911C140.57 111.739 140.875 111.434 140.875 111.434C140.98 111.084 141.051 110.725 141.087 110.361C141.087 110.017 142.12 96.761 142.12 96.761L140.054 79.5452L135.061 96.4167C135.061 96.4167 135.061 111.222 134.717 111.567C134.373 111.911 134.373 111.739 134.545 112.427C134.717 113.116 135.406 112.944 134.889 113.46C134.373 113.977 134.2 113.116 134.373 113.977L134.545 114.838L129.38 114.911C129.38 114.911 128.691 113.46 129.036 112.944C129.38 112.427 129.359 112.568 128.939 111.723C128.519 110.878 128.347 110.706 128.519 110.534C128.691 110.361 128.691 109.446 128.691 109.446L129.552 92.9735C129.552 92.9735 129.724 75.5856 129.724 75.0691C129.737 74.8034 129.688 74.5382 129.581 74.2946V73.5936L130.241 71.1095L132.542 65.1367Z" fill="#2F2E41"/>
<path d="M142.385 31.0556C145.198 31.0556 147.478 28.7756 147.478 25.9631C147.478 23.1506 145.198 20.8706 142.385 20.8706C139.573 20.8706 137.293 23.1506 137.293 25.9631C137.293 28.7756 139.573 31.0556 142.385 31.0556Z" fill="#FFB6B6"/>
<path d="M139.839 34.4214C138.742 35.0736 138.086 36.272 137.709 37.4915C137.012 39.7492 136.592 42.0835 136.459 44.4428L136.061 51.506L131.133 66.5455C135.404 70.1595 151.459 67.3669 151.459 67.3669C151.459 67.3669 151.951 67.2026 151.459 66.7098C150.966 66.2169 150.486 66.6536 150.979 66.1607C151.472 65.6679 151.132 66.2169 150.968 65.7241C150.803 65.2313 150.968 65.5598 151.132 65.3956C151.296 65.2313 149.86 63.7528 149.86 63.7528L151.174 55.12L152.817 37.7069C150.846 35.2428 146.881 33.7902 146.881 33.7902L145.857 31.9463L140.735 32.356L139.839 34.4214Z" fill="#E6E6E6"/>
<path d="M139.142 22.9745C139.339 22.9761 139.535 23.0018 139.726 23.0512C140.102 23.1416 140.484 23.2056 140.869 23.2428C142.048 23.3537 143.156 23.8565 144.016 24.6709C144.875 25.4852 145.437 26.5641 145.612 27.7353C145.908 27.4773 146.581 27.0027 147.133 27.4438C147.141 27.4508 147.146 27.4544 147.166 27.4452C147.532 27.2713 148.183 25.1311 148.203 23.2467C148.213 22.2466 148.055 20.9694 147.247 20.5649L147.204 20.5436L147.193 20.4973C147.139 20.2723 146.535 19.8883 145.485 19.5894C143.578 19.0462 140.736 17.988 139.135 19.5453C139.014 20.0703 138.62 21.1938 138.221 21.3211C137.781 21.4621 137.4 21.5837 137.34 22.1245C137.29 22.8941 137.293 23.6663 137.351 24.4354C137.5 23.9648 137.793 23.5528 138.189 23.2576C138.47 23.0682 138.803 22.9694 139.142 22.9745Z" fill="#2F2E41"/>
<path d="M129.665 51.1129L137.983 45.7855L133.794 40.2158L129.656 45.305L116.766 46.0956C116.427 45.7604 115.998 45.5312 115.53 45.4357C115.063 45.3403 114.579 45.3829 114.135 45.5582C113.692 45.7335 113.309 46.0341 113.034 46.4231C112.758 46.8122 112.602 47.2731 112.584 47.7495C112.566 48.2259 112.687 48.6972 112.932 49.1061C113.177 49.515 113.536 49.8437 113.965 50.0521C114.393 50.2606 114.873 50.3398 115.346 50.2801C115.819 50.2204 116.265 50.0243 116.628 49.7159L129.665 51.1129Z" fill="#FFB6B6"/>
<path d="M145.701 38.3492C146.184 41.2711 137.066 46.8506 137.066 46.8506C137.066 46.1648 131.625 51.3423 131.379 50.7735C130.681 49.1569 130.19 45.3281 129.215 44.7152C128.657 44.3648 132.574 41.0724 132.574 41.0724C132.574 41.0724 134.625 39.0064 137.316 36.4006C138.063 35.6497 138.988 35.1001 140.005 34.8029C141.022 34.5058 142.097 34.4706 143.131 34.7009C143.131 34.7009 145.218 35.4273 145.701 38.3492Z" fill="#E6E6E6"/>
<path d="M162.849 52.5116L157.347 44.3076L151.867 48.6144L157.043 52.643L158.106 65.5139C157.778 65.86 157.558 66.294 157.473 66.763C157.387 67.232 157.44 67.7158 157.625 68.1553C157.809 68.5948 158.118 68.9711 158.513 69.2383C158.908 69.5055 159.372 69.652 159.848 69.66C160.325 69.668 160.794 69.5371 161.197 69.2834C161.601 69.0296 161.922 68.6639 162.121 68.2308C162.321 67.7977 162.39 67.316 162.32 66.8444C162.25 66.3728 162.045 65.9316 161.729 65.5748L162.849 52.5116Z" fill="#FFB6B6"/>
<path d="M149.747 36.7459C152.658 36.2014 158.429 45.1986 158.429 45.1986C157.744 45.2133 163.035 50.5442 162.472 50.8018C160.87 51.534 157.053 52.1058 156.461 53.094C156.122 53.6592 152.747 49.8121 152.747 49.8121C152.747 49.8121 150.639 47.8056 147.976 45.1702C147.21 44.4391 146.641 43.526 146.322 42.5158C146.003 41.5056 145.946 40.4313 146.154 39.3927C146.154 39.3927 146.836 37.2905 149.747 36.7459Z" fill="#E6E6E6"/>
<path d="M164.256 120.756C164.256 120.788 164.25 120.82 164.238 120.849C164.226 120.879 164.208 120.906 164.185 120.929C164.162 120.951 164.136 120.969 164.106 120.981C164.076 120.994 164.045 121 164.012 121H106.588C106.523 121 106.461 120.974 106.415 120.928C106.369 120.883 106.344 120.821 106.344 120.756C106.344 120.691 106.369 120.629 106.415 120.584C106.461 120.538 106.523 120.512 106.588 120.512H164.012C164.045 120.512 164.076 120.518 164.106 120.531C164.136 120.543 164.162 120.561 164.185 120.583C164.208 120.606 164.226 120.633 164.238 120.663C164.25 120.692 164.256 120.724 164.256 120.756Z" fill="#CCCCCC"/>
<path d="M111.058 46.874H41.3647C40.2759 46.8753 39.232 47.3083 38.4621 48.0783C37.6921 48.8482 37.259 49.8921 37.2578 50.9809V94.3714C37.2591 95.4603 37.6921 96.5042 38.4621 97.2741C39.232 98.044 40.2759 98.4771 41.3647 98.4784H111.058C112.147 98.4771 113.19 98.0441 113.96 97.2741C114.73 96.5042 115.163 95.4603 115.165 94.3714V50.9809C115.163 49.8921 114.73 48.8482 113.96 48.0783C113.19 47.3083 112.147 46.8752 111.058 46.874Z" fill="#00B0FF"/>
<path d="M111.058 46.874H41.3647C40.2759 46.8753 39.232 47.3083 38.4621 48.0783C37.6921 48.8482 37.259 49.8921 37.2578 50.9809V94.3714C37.2591 95.4603 37.6921 96.5042 38.4621 97.2741C39.232 98.044 40.2759 98.4771 41.3647 98.4784H111.058C112.147 98.4771 113.19 98.0441 113.96 97.2741C114.73 96.5042 115.163 95.4603 115.165 94.3714V50.9809C115.163 49.8921 114.73 48.8482 113.96 48.0783C113.19 47.3083 112.147 46.8752 111.058 46.874ZM112.405 78.042C112.389 82.4594 110.641 86.6943 107.538 89.8382C104.435 92.9822 100.223 94.7847 95.8067 94.859C88.735 94.9511 99.7193 94.987 91.1904 94.987C71.6877 94.987 51.3517 94.8006 43.7641 94.6798C42.7658 94.6592 41.8151 94.2491 41.115 93.5372C40.4149 92.8253 40.0208 91.8678 40.017 90.8693V50.9842C40.0174 50.6266 40.1593 50.2837 40.4119 50.0306C40.6644 49.7774 41.0069 49.6346 41.3644 49.6333H111.055C111.412 49.6338 111.755 49.7757 112.008 50.0282C112.261 50.2806 112.404 50.6231 112.405 50.9805V78.042Z" fill="#3F3D56"/>
<path d="M102.479 21.8887H49.3805C48.9107 21.8893 48.4526 22.035 48.0686 22.3057C47.6847 22.5765 47.3936 22.9591 47.2353 23.4014L39.0345 46.4091C38.9121 46.7525 38.874 47.1203 38.9232 47.4815C38.9725 47.8427 39.1078 48.1868 39.3177 48.4849C39.5276 48.783 39.8059 49.0264 40.1294 49.1945C40.4529 49.3627 40.812 49.4507 41.1766 49.4512L112.391 49.5776H112.394C112.771 49.5776 113.142 49.4841 113.474 49.3054C113.805 49.1267 114.088 48.8685 114.295 48.5538C114.503 48.2392 114.629 47.878 114.662 47.5026C114.696 47.1272 114.636 46.7494 114.487 46.403L104.573 23.269C104.397 22.8591 104.105 22.5098 103.733 22.2644C103.361 22.019 102.925 21.8883 102.479 21.8887Z" fill="#3F3D56"/>
<path d="M114.671 46.9027C114.671 47.2112 114.608 47.5165 114.487 47.8001L104.573 65.608C104.396 66.017 104.104 66.3654 103.732 66.6104C103.36 66.8554 102.924 66.9862 102.479 66.9868H49.381C48.911 66.9864 48.4526 66.8409 48.0684 66.5703C47.6841 66.2997 47.3927 65.9172 47.2339 65.4748L39.0347 47.794C38.9342 47.5123 38.8902 47.2135 38.9052 46.9148C38.9202 46.6161 38.994 46.3233 39.1222 46.0531C39.2505 45.783 39.4307 45.5407 39.6526 45.3402C39.8745 45.1397 40.1338 44.9849 40.4156 44.8847C40.6593 44.7967 40.9165 44.7516 41.1757 44.7515L49.8747 44.7351L53.4252 44.729L100.145 44.6471L103.698 44.6409L112.391 44.6245H112.393C112.997 44.6246 113.577 44.8647 114.004 45.2919C114.431 45.7191 114.671 46.2985 114.671 46.9027Z" fill="#3F3D56"/>
<path d="M46.5901 79.4219C47.643 79.4219 62.1021 80.3055 62.1021 81.3585C62.1021 82.4114 47.643 83.2349 46.5901 83.2349C46.0845 83.2349 45.5995 83.034 45.242 82.6765C44.8845 82.3189 44.6836 81.834 44.6836 81.3284C44.6836 80.8227 44.8845 80.3378 45.242 79.9803C45.5995 79.6227 46.0845 79.4219 46.5901 79.4219Z" fill="#3F3D56"/>
<path d="M99.1725 7.89209H54.4007C53.2009 7.89348 52.0505 8.37074 51.2021 9.21918C50.3537 10.0676 49.8764 11.2179 49.875 12.4178V66.9868H102.479C102.911 66.9881 103.334 66.8651 103.698 66.6323V12.4178C103.697 11.2179 103.22 10.0676 102.371 9.21918C101.523 8.37074 100.372 7.89348 99.1725 7.89209Z" fill="#E6E6E6"/>
<path d="M82.084 11.5615H57.5479C56.4553 11.5626 55.4078 11.9969 54.635 12.7693C53.8623 13.5417 53.4274 14.589 53.4258 15.6816V66.9869H100.146V29.6235C100.14 24.8348 98.2357 20.2439 94.8496 16.8578C91.4635 13.4718 86.8726 11.567 82.084 11.5615Z" fill="white"/>
<path d="M92.184 62.4302H61.3828C61.1166 62.4302 60.8612 62.5359 60.6729 62.7242C60.4847 62.9125 60.3789 63.1678 60.3789 63.4341C60.3789 63.7003 60.4847 63.9557 60.6729 64.1439C60.8612 64.3322 61.1166 64.438 61.3828 64.438H92.184C92.4502 64.438 92.7056 64.3322 92.8938 64.1439C93.0821 63.9557 93.1879 63.7003 93.1879 63.4341C93.1879 63.1678 93.0821 62.9125 92.8938 62.7242C92.7056 62.5359 92.4502 62.4302 92.184 62.4302Z" fill="#E4E4E4"/>
<path d="M92.185 58.4595H61.3838C61.1173 58.4595 60.8617 58.5653 60.6732 58.7538C60.4848 58.9423 60.3789 59.1979 60.3789 59.4644C60.3789 59.7309 60.4848 59.9865 60.6732 60.175C60.8617 60.3634 61.1173 60.4693 61.3838 60.4693H92.185C92.4515 60.4693 92.7071 60.3634 92.8956 60.175C93.0841 59.9865 93.1899 59.7309 93.1899 59.4644C93.1899 59.1979 93.0841 58.9423 92.8956 58.7538C92.7071 58.5653 92.4515 58.4595 92.185 58.4595Z" fill="#E4E4E4"/>
<path d="M74.7346 54.4912H61.3828C61.1166 54.4912 60.8612 54.597 60.6729 54.7852C60.4847 54.9735 60.3789 55.2289 60.3789 55.4951C60.3789 55.7614 60.4847 56.0167 60.6729 56.205C60.8612 56.3932 61.1166 56.499 61.3828 56.499H74.7346C75.0009 56.499 75.2562 56.3932 75.4445 56.205C75.6328 56.0167 75.7385 55.7614 75.7385 55.4951C75.7385 55.2289 75.6328 54.9735 75.4445 54.7852C75.2562 54.597 75.0009 54.4912 74.7346 54.4912Z" fill="#E4E4E4"/>
<path d="M92.185 46.1772H61.3838C61.1173 46.1772 60.8617 46.2831 60.6732 46.4716C60.4848 46.66 60.3789 46.9156 60.3789 47.1822C60.3789 47.4487 60.4848 47.7043 60.6732 47.8928C60.8617 48.0812 61.1173 48.1871 61.3838 48.1871H92.185C92.4515 48.1871 92.7071 48.0812 92.8956 47.8928C93.0841 47.7043 93.1899 47.4487 93.1899 47.1822C93.1899 46.9156 93.0841 46.66 92.8956 46.4716C92.7071 46.2831 92.4515 46.1772 92.185 46.1772Z" fill="#E4E4E4"/>
<path d="M92.184 42.209H61.3828C61.1166 42.209 60.8612 42.3148 60.6729 42.503C60.4847 42.6913 60.3789 42.9466 60.3789 43.2129C60.3789 43.4791 60.4847 43.7345 60.6729 43.9227C60.8612 44.111 61.1166 44.2168 61.3828 44.2168H92.184C92.4502 44.2168 92.7056 44.111 92.8938 43.9227C93.0821 43.7345 93.1879 43.4791 93.1879 43.2129C93.1879 42.9466 93.0821 42.6913 92.8938 42.503C92.7056 42.3148 92.4502 42.209 92.184 42.209Z" fill="#E4E4E4"/>
<path d="M74.7356 38.2383H61.3838C61.1173 38.2383 60.8617 38.3442 60.6732 38.5326C60.4848 38.7211 60.3789 38.9767 60.3789 39.2432C60.3789 39.5097 60.4848 39.7653 60.6732 39.9538C60.8617 40.1422 61.1173 40.2481 61.3838 40.2481H74.7356C75.0022 40.2481 75.2578 40.1422 75.4462 39.9538C75.6347 39.7653 75.7406 39.5097 75.7406 39.2432C75.7406 38.9767 75.6347 38.7211 75.4462 38.5326C75.2578 38.3442 75.0022 38.2383 74.7356 38.2383Z" fill="#E4E4E4"/>
<path d="M92.185 29.9243H61.3838C61.1173 29.9243 60.8617 30.0302 60.6732 30.2187C60.4848 30.4071 60.3789 30.6627 60.3789 30.9292C60.3789 31.1958 60.4848 31.4514 60.6732 31.6398C60.8617 31.8283 61.1173 31.9342 61.3838 31.9342H92.185C92.4515 31.9342 92.7071 31.8283 92.8956 31.6398C93.0841 31.4514 93.1899 31.1958 93.1899 30.9292C93.1899 30.6627 93.0841 30.4071 92.8956 30.2187C92.7071 30.0302 92.4515 29.9243 92.185 29.9243Z" fill="#00B0FF"/>
<path d="M92.185 25.9561H61.3838C61.1173 25.9561 60.8617 26.0619 60.6732 26.2504C60.4848 26.4388 60.3789 26.6945 60.3789 26.961C60.3789 27.2275 60.4848 27.4831 60.6732 27.6716C60.8617 27.86 61.1173 27.9659 61.3838 27.9659H92.185C92.4515 27.9659 92.7071 27.86 92.8956 27.6716C93.0841 27.4831 93.1899 27.2275 93.1899 26.961C93.1899 26.6945 93.0841 26.4388 92.8956 26.2504C92.7071 26.0619 92.4515 25.9561 92.185 25.9561Z" fill="#00B0FF"/>
<path d="M74.7356 21.9854H61.3838C61.1173 21.9854 60.8617 22.0912 60.6732 22.2797C60.4848 22.4681 60.3789 22.7238 60.3789 22.9903C60.3789 23.2568 60.4848 23.5124 60.6732 23.7009C60.8617 23.8893 61.1173 23.9952 61.3838 23.9952H74.7356C75.0022 23.9952 75.2578 23.8893 75.4462 23.7009C75.6347 23.5124 75.7406 23.2568 75.7406 22.9903C75.7406 22.7238 75.6347 22.4681 75.4462 22.2797C75.2578 22.0912 75.0022 21.9854 74.7356 21.9854Z" fill="#00B0FF"/>
<path d="M102.018 15.6374C106.336 15.6374 109.837 12.1368 109.837 7.81868C109.837 3.50054 106.336 0 102.018 0C97.6998 0 94.1992 3.50054 94.1992 7.81868C94.1992 12.1368 97.6998 15.6374 102.018 15.6374Z" fill="#00B0FF"/>
<path d="M100.953 11.8882C100.818 11.8882 100.685 11.8567 100.564 11.7963C100.444 11.7359 100.339 11.6482 100.258 11.5402L98.1246 8.69609C98.0557 8.60475 98.0055 8.50071 97.9769 8.38994C97.9482 8.27916 97.9418 8.16383 97.9578 8.05054C97.9738 7.93726 98.012 7.82825 98.0703 7.72977C98.1285 7.63128 98.2056 7.54525 98.2971 7.47661C98.3887 7.40796 98.4928 7.35805 98.6037 7.32974C98.7145 7.30142 98.8299 7.29526 98.9431 7.3116C99.0564 7.32794 99.1653 7.36646 99.2636 7.42496C99.3619 7.48345 99.4477 7.56078 99.5161 7.6525L100.912 9.51305L104.496 4.13681C104.624 3.94488 104.823 3.81164 105.049 3.7664C105.275 3.72117 105.51 3.76764 105.702 3.89559C105.894 4.02354 106.027 4.22249 106.072 4.44868C106.118 4.67487 106.071 4.90977 105.943 5.10169L101.677 11.5009C101.6 11.6166 101.496 11.7121 101.374 11.7795C101.253 11.8468 101.117 11.884 100.978 11.8879C100.969 11.888 100.961 11.8882 100.953 11.8882Z" fill="white"/>
</g>
<defs>
<clipPath id="clip0_636_5">
<rect width="138.255" height="121" fill="white" transform="translate(26)"/>
</clipPath>
</defs>
</svg>
