<svg width="190" height="124" viewBox="0 0 190 124" fill="none" xmlns="http://www.w3.org/2000/svg">
<g clip-path="url(#clip0_636_435)">
<g clip-path="url(#clip1_636_435)">
<path d="M147.171 120.245C147.659 120.275 147.929 119.669 147.559 119.315L147.523 119.169C147.527 119.157 147.532 119.145 147.537 119.134C148.031 117.956 149.705 117.964 150.195 119.143C150.63 120.191 151.184 121.239 151.32 122.346C151.381 122.835 151.353 123.333 151.245 123.813C152.264 121.587 152.8 119.158 152.8 116.714C152.8 116.1 152.766 115.486 152.697 114.874C152.641 114.373 152.563 113.875 152.462 113.382C151.917 110.715 150.736 108.175 149.034 106.054C148.215 105.607 147.532 104.907 147.12 104.069C146.972 103.766 146.856 103.441 146.801 103.11C146.894 103.122 147.152 101.703 147.082 101.616C147.212 101.419 147.444 101.321 147.586 101.129C148.291 100.173 149.263 100.34 149.77 101.639C150.853 102.186 150.864 103.093 150.199 103.965C149.776 104.52 149.718 105.271 149.347 105.865C149.385 105.914 149.425 105.961 149.463 106.01C150.163 106.908 150.768 107.873 151.279 108.887C151.135 107.76 151.348 106.402 151.711 105.527C152.124 104.53 152.899 103.69 153.581 102.828C154.401 101.793 156.081 102.244 156.226 103.557C156.227 103.57 156.228 103.583 156.23 103.595C156.128 103.652 156.029 103.713 155.932 103.777C155.379 104.143 155.57 105.001 156.226 105.102L156.241 105.104C156.204 105.469 156.141 105.831 156.05 106.187C156.925 109.572 155.035 110.805 152.337 110.86C152.277 110.891 152.219 110.921 152.16 110.95C152.433 111.72 152.652 112.51 152.813 113.31C152.959 114.017 153.059 114.732 153.116 115.45C153.186 116.355 153.18 117.265 153.104 118.169L153.108 118.137C153.302 117.142 153.843 116.212 154.628 115.567C155.797 114.606 157.449 114.253 158.711 113.481C159.318 113.109 160.096 113.589 159.99 114.293L159.985 114.327C159.797 114.403 159.614 114.492 159.437 114.591C159.336 114.648 159.236 114.709 159.139 114.773C158.586 115.139 158.777 115.997 159.433 116.098L159.448 116.1C159.458 116.102 159.468 116.103 159.478 116.105C159.156 116.87 158.707 117.58 158.145 118.192C157.598 121.147 155.247 121.428 152.732 120.567H152.731C152.456 121.765 152.054 122.934 151.538 124.049H147.277C147.262 124.002 147.248 123.953 147.235 123.906C147.629 123.93 148.026 123.907 148.414 123.835C148.097 123.448 147.781 123.057 147.465 122.669C147.457 122.661 147.451 122.653 147.445 122.646C147.285 122.447 147.123 122.25 146.963 122.052L146.963 122.051C146.953 121.442 147.026 120.834 147.171 120.245Z" fill="#F2F2F2"/>
<path d="M68.7734 123.825C68.7734 123.981 68.8988 124.107 69.0548 124.107H159.685C159.841 124.107 159.966 123.981 159.966 123.825C159.966 123.669 159.841 123.544 159.685 123.544H69.0548C68.8988 123.544 68.7734 123.669 68.7734 123.825Z" fill="#CCCCCC"/>
<path d="M82.5269 123.987H40.8108C35.7242 123.987 31.5859 119.849 31.5859 114.762V25.111C31.5859 20.0245 35.7242 15.8862 40.8108 15.8862H82.5269C87.6134 15.8862 91.7516 20.0245 91.7516 25.111V114.762C91.7516 119.849 87.6134 123.987 82.5269 123.987Z" fill="#3F3D56"/>
<path d="M91.7496 48.8628C91.5344 48.8628 91.3594 49.0378 91.3594 49.253V61.7412C91.3594 61.9564 91.5344 62.1315 91.7496 62.1315C91.9649 62.1315 92.1399 61.9564 92.1399 61.7412V49.253C92.1399 49.0378 91.9649 48.8628 91.7496 48.8628Z" fill="#3F3D56"/>
<path d="M90.8744 25.1112V114.761C90.8744 119.188 87.4284 122.81 83.0713 123.09H83.0693C83.0049 123.094 82.9405 123.098 82.8742 123.1C82.759 123.106 82.6439 123.108 82.5268 123.108C82.5268 123.108 82.0976 123.077 81.3131 123.018C80.5209 122.96 79.3677 122.872 77.9296 122.757C77.4984 122.724 77.0438 122.687 76.5637 122.648C75.6076 122.57 74.5578 122.484 73.432 122.386C72.9832 122.349 72.5188 122.308 72.0446 122.267C69.6211 122.058 66.9069 121.814 64.0444 121.537C63.5605 121.492 63.0727 121.446 62.5809 121.397C62.4521 121.383 62.3214 121.371 62.1907 121.358C60.1496 121.157 32.4648 115.806 32.4648 114.761V25.1112C32.4648 20.5004 36.2015 16.7637 40.8124 16.7637H45.7959C46.5921 16.7637 47.2321 17.3842 47.3004 18.1783C47.3062 18.231 47.3121 18.2837 47.3218 18.3364C47.4662 19.1345 48.198 19.6906 49.0097 19.6906H74.3295C75.1413 19.6906 75.873 19.1345 76.0174 18.3364C76.0271 18.2837 76.033 18.231 76.0389 18.1783C76.1072 17.3842 76.7472 16.7637 77.5433 16.7637H82.5268C87.1377 16.7637 90.8744 20.5004 90.8744 25.1112Z" fill="white"/>
<path d="M31.3903 39.4966C31.175 39.4966 31 39.6716 31 39.8868V43.0089C31 43.2241 31.175 43.3991 31.3903 43.3991C31.6055 43.3991 31.7805 43.2241 31.7805 43.0089V39.8868C31.7805 39.6716 31.6055 39.4966 31.3903 39.4966Z" fill="#3F3D56"/>
<path d="M31.3903 48.8628C31.175 48.8628 31 49.0378 31 49.253V55.302C31 55.5172 31.175 55.6922 31.3903 55.6922C31.6055 55.6922 31.7805 55.5172 31.7805 55.302V49.253C31.7805 49.0378 31.6055 48.8628 31.3903 48.8628Z" fill="#3F3D56"/>
<path d="M31.3903 57.4482C31.175 57.4482 31 57.6233 31 57.8385V63.8874C31 64.1027 31.175 64.2777 31.3903 64.2777C31.6055 64.2777 31.7805 64.1027 31.7805 63.8874V57.8385C31.7805 57.6233 31.6055 57.4482 31.3903 57.4482Z" fill="#3F3D56"/>
<path d="M45.6577 18.1304H38.1944C38.1539 18.1304 38.1211 18.1632 38.1211 18.2037V19.0327C38.1211 19.0732 38.1539 19.106 38.1944 19.106H45.6577C45.6982 19.106 45.7311 19.0732 45.7311 19.0327V18.2037C45.7311 18.1632 45.6982 18.1304 45.6577 18.1304Z" fill="#E6E6E6"/>
<path d="M78.7766 19.1059C79.2077 19.1059 79.5571 18.7565 79.5571 18.3254C79.5571 17.8944 79.2077 17.5449 78.7766 17.5449C78.3455 17.5449 77.9961 17.8944 77.9961 18.3254C77.9961 18.7565 78.3455 19.1059 78.7766 19.1059Z" fill="#E6E6E6"/>
<path d="M80.9211 19.1059C81.3522 19.1059 81.7016 18.7565 81.7016 18.3254C81.7016 17.8944 81.3522 17.5449 80.9211 17.5449C80.4901 17.5449 80.1406 17.8944 80.1406 18.3254C80.1406 18.7565 80.4901 19.1059 80.9211 19.1059Z" fill="#E6E6E6"/>
<path d="M83.0696 19.1059C83.5006 19.1059 83.8501 18.7565 83.8501 18.3254C83.8501 17.8944 83.5006 17.5449 83.0696 17.5449C82.6385 17.5449 82.2891 17.8944 82.2891 18.3254C82.2891 18.7565 82.6385 19.1059 83.0696 19.1059Z" fill="#E6E6E6"/>
<path d="M78.1234 70.9087H45.02C44.4985 70.9087 44.0742 70.4844 44.0742 69.9629C44.0742 69.4414 44.4985 69.0171 45.02 69.0171H78.1234C78.6449 69.0171 79.0692 69.4414 79.0692 69.9629C79.0692 70.4844 78.6449 70.9087 78.1234 70.9087Z" fill="#E6E6E6"/>
<path d="M61.6908 107.559C69.265 107.559 75.4051 101.419 75.4051 93.8446C75.4051 86.2705 69.265 80.1304 61.6908 80.1304C54.1166 80.1304 47.9766 86.2705 47.9766 93.8446C47.9766 101.419 54.1166 107.559 61.6908 107.559Z" fill="#00B0FF"/>
<path d="M63.8685 89.3665C62.7111 89.414 61.4026 89.4935 60.5472 90.3816C59.804 91.1531 59.6411 92.2981 60.3948 93.1218C61.1504 93.9477 62.3253 94.0595 63.1963 94.7038C64.2191 95.4603 64.0693 96.957 63.0795 97.674C61.9124 98.5195 60.4055 98.1253 59.3385 97.3209C59.065 97.1147 58.7996 97.5764 59.0699 97.7802C60.0259 98.501 61.2734 98.9022 62.4554 98.5574C63.5221 98.2461 64.349 97.3763 64.4331 96.2449C64.4733 95.7049 64.3197 95.1569 63.984 94.7305C63.6295 94.2805 63.119 94.0036 62.6029 93.7783C61.7145 93.3904 60.1848 92.8885 60.4431 91.6256C60.7562 90.0949 62.6193 89.9498 63.8685 89.8985C64.2096 89.8845 64.2114 89.3524 63.8685 89.3665Z" fill="white"/>
<path d="M61.7229 88.6427L61.6719 100.322C61.6704 100.664 62.2024 100.665 62.2039 100.322L62.2549 88.6427C62.2564 88.3003 61.7244 88.2999 61.7229 88.6427Z" fill="white"/>
<path d="M134.352 0.32373H66.7356C64.2552 0.32373 62.2383 2.34067 62.2383 4.82106V51.1564C62.2383 53.6368 64.2552 55.6537 66.7356 55.6537H134.352C136.832 55.6537 138.849 53.6368 138.849 51.1564V4.82106C138.849 2.34067 136.832 0.32373 134.352 0.32373Z" fill="white"/>
<path d="M100.231 27.8742C104.409 27.8742 107.797 24.4866 107.797 20.3077C107.797 16.1288 104.409 12.7412 100.231 12.7412C96.0517 12.7412 92.6641 16.1288 92.6641 20.3077C92.6641 24.4866 96.0517 27.8742 100.231 27.8742Z" fill="#00B0FF"/>
<path d="M101.667 16.9313C100.73 16.9699 99.6759 17.0293 98.9674 17.7263C98.3805 18.3037 98.1753 19.2025 98.7145 19.8823C99.2823 20.5981 100.227 20.7339 100.968 21.1913C101.429 21.4755 101.734 21.9062 101.744 22.4597C101.753 22.9778 101.514 23.4619 101.114 23.7867C100.133 24.5835 98.7957 24.2536 97.8678 23.5568C97.6852 23.4197 97.5082 23.7275 97.6887 23.8631C98.4572 24.4402 99.4467 24.7754 100.403 24.5271C101.283 24.2985 101.992 23.6061 102.088 22.6808C102.188 21.7056 101.548 21.0416 100.717 20.6607C99.9586 20.3125 98.6275 19.9415 98.7529 18.8597C98.9125 17.4844 100.596 17.3301 101.667 17.286C101.894 17.2766 101.895 16.9219 101.667 16.9313Z" fill="white"/>
<path d="M100.039 16.288L99.9961 26.02C99.9951 26.2482 100.35 26.2485 100.351 26.02L100.393 16.288C100.394 16.0597 100.04 16.0595 100.039 16.288Z" fill="white"/>
<path d="M134.352 0.32373H66.7356C64.2552 0.32373 62.2383 2.34067 62.2383 4.82106V51.1564C62.2383 53.6368 64.2552 55.6537 66.7356 55.6537H134.352C136.832 55.6537 138.849 53.6368 138.849 51.1564V4.82106C138.849 2.34067 136.832 0.32373 134.352 0.32373ZM138.376 51.1564C138.376 53.3767 136.572 55.1808 134.352 55.1808H66.7356C64.5153 55.1808 62.7112 53.3767 62.7112 51.1564V4.82106C62.7112 2.60077 64.5153 0.796636 66.7356 0.796636H134.352C136.572 0.796636 138.376 2.60077 138.376 4.82106V51.1564Z" fill="#3F3D56"/>
<path d="M92.748 4.89893H86.1131C85.7797 4.89893 85.5078 5.17085 85.5078 5.50425C85.5078 5.84 85.7797 6.11193 86.1131 6.11193H92.748C93.0814 6.11193 93.3533 5.84001 93.3533 5.50425C93.3533 5.17085 93.0814 4.89893 92.748 4.89893Z" fill="#E6E6E6"/>
<path d="M103.861 4.89893H97.2264C96.893 4.89893 96.6211 5.17085 96.6211 5.50425C96.6211 5.84 96.893 6.11193 97.2264 6.11193H103.861C104.195 6.11193 104.467 5.84001 104.467 5.50425C104.467 5.17085 104.195 4.89893 103.861 4.89893Z" fill="#E6E6E6"/>
<path d="M114.975 4.89893H108.34C108.006 4.89893 107.734 5.17085 107.734 5.50425C107.734 5.84 108.006 6.11193 108.34 6.11193H114.975C115.308 6.11193 115.58 5.84001 115.58 5.50425C115.58 5.17085 115.308 4.89893 114.975 4.89893Z" fill="#E6E6E6"/>
<path d="M125.916 32.1304H75.168C73.0565 32.1304 71.3398 33.847 71.3398 35.9585V39.4155C71.3398 41.527 73.0565 43.2437 75.168 43.2437H125.916C128.027 43.2437 129.744 41.527 129.744 39.4155V35.9585C129.744 33.847 128.027 32.1304 125.916 32.1304Z" fill="#00B0FF"/>
<path d="M48.3054 50.3317L46.3594 49.4099C47.1575 50.5238 47.8453 52.2634 48.2135 53.6477C48.8369 52.3583 49.8419 50.7805 50.8366 49.838L48.7799 50.3671C50.0473 44.156 54.814 39.697 60.2726 39.697V39.2241C54.571 39.2241 49.5993 43.8698 48.3054 50.3317Z" fill="#3F3D56"/>
<path d="M57.2609 59.7954H44.9653C44.4438 59.7954 44.0195 59.3711 44.0195 58.8496C44.0195 58.3281 44.4438 57.9038 44.9653 57.9038H57.2609C57.7824 57.9038 58.2067 58.3281 58.2067 58.8496C58.2067 59.3711 57.7824 59.7954 57.2609 59.7954Z" fill="#E6E6E6"/>
<path d="M139.053 56.715L138.929 66.3714L136.526 74.9796L134.605 74.2632L135.458 66.3729L135.346 55.6953L139.053 56.715Z" fill="#FFB6B6"/>
<path d="M136.519 76.3679C136.744 75.1301 136.331 74.0182 135.596 73.8844C134.861 73.7505 134.083 74.6455 133.857 75.8833C133.632 77.1211 134.045 78.233 134.78 78.3668C135.515 78.5006 136.293 77.6057 136.519 76.3679Z" fill="#FFB6B6"/>
<path d="M136.141 45.2173C136.141 45.2173 140.257 45.2739 140.253 47.4604C140.251 48.6949 139.986 59.9033 139.248 66.7123C138.679 71.9632 137.593 73.333 137.593 73.333L134.992 67.4217L136.141 45.2173Z" fill="#E6E6E6"/>
<path d="M136.033 64.9463H122.133C123.298 62.3464 124.014 59.8704 122.894 57.9008L136.033 57.1392C135.377 59.7979 135.296 62.4072 136.033 64.9463Z" fill="#FFB6B6"/>
<path d="M134.318 41.9057L128.795 41.5249L126.51 44.3812L125.352 44.5918C123.616 44.9075 122.379 46.4571 122.457 48.2203L122.907 58.4618L136.106 59.4242L139.268 46.0877L135.46 44.5716L134.318 41.9057Z" fill="#E6E6E6"/>
<path d="M100.643 44.9949C101.035 45.3473 101.315 45.759 101.462 46.1584L105.407 49.2802L103.866 51.1136L100.031 47.7494C99.6183 47.6446 99.1794 47.4099 98.7876 47.0574C97.8926 46.2523 97.5824 45.1378 98.0947 44.5683C98.6071 43.9987 99.7481 44.1897 100.643 44.9949Z" fill="#FFB6B6"/>
<path d="M128.529 47.623L113.415 57.8282L102.582 50.2891L104.208 47.3429L112.735 52.2981L120.598 46.2605C123.398 43.6304 126.908 44.1402 128.529 47.623Z" fill="#E6E6E6"/>
<path d="M131.23 40.6696C133.492 40.6696 135.326 38.8354 135.326 36.5728C135.326 34.3103 133.492 32.4761 131.23 32.4761C128.967 32.4761 127.133 34.3103 127.133 36.5728C127.133 38.8354 128.967 40.6696 131.23 40.6696Z" fill="#FFB6B6"/>
<path d="M136.798 35.5663V36.3608L132.178 35.0603L128.714 35.7862C128.674 35.2589 128.518 34.7411 128.257 34.2824C128.438 35.0181 128.459 35.5873 128.267 35.8808L127.801 35.9777C127.725 35.772 127.579 35.5923 127.387 35.4835C127.368 35.4717 127.345 35.4623 127.323 35.4694C127.29 35.4812 127.288 35.5237 127.288 35.5568C127.293 35.7318 127.297 35.9068 127.305 36.0818L125.966 36.3608V35.5663C124.682 32.6773 128.066 30.1775 131.383 30.1515C132.88 30.1398 134.233 30.7569 135.214 31.7358C136.193 32.717 136.798 34.0696 136.798 35.5663Z" fill="#2F2E41"/>
<path d="M139.396 44.8821L139.048 44.8532C139.072 44.7391 139.097 44.6265 139.12 44.5124C139.313 43.5548 138.888 42.3359 138.856 41.4159C138.692 42.3879 138.973 43.5837 138.682 44.5066C138.65 44.6091 137.387 45.2709 137.353 45.3719C135.956 44.861 134.501 43.2283 132.853 44.1819C131.878 44.7459 130.766 44.4987 129.66 44.2404C129.386 44.1765 129.348 42.8241 129.077 42.771C128.592 42.6758 127.879 43.9052 127.422 43.9532L129.313 36.6232C129.313 32.6356 128.944 28.452 133.995 29.862C135.266 30.2166 136.523 30.4946 137.461 31.5431C138.398 32.593 139.066 34.0604 139.302 35.7314C139.445 36.7395 140.335 40.1623 139.396 44.8821Z" fill="#2F2E41"/>
<path d="M136.133 118.593L133.878 118.646L132.621 108.516L135.949 108.437L136.133 118.593Z" fill="#FFB7B7"/>
<path d="M128.398 123.298C128.398 123.679 128.669 123.987 129.002 123.987H133.478C133.478 123.987 133.919 122.217 135.714 121.455L135.838 123.987H138.147L137.868 119.915C137.868 119.915 138.485 117.737 137.202 116.623C135.92 115.509 136.959 115.664 136.959 115.664L136.454 113.144L132.965 113.554L132.939 117.511L131.246 121.438L128.763 122.665C128.542 122.774 128.398 123.023 128.398 123.298Z" fill="#2F2E41"/>
<path d="M129.274 116.942L127.107 117.566L123.32 108.086L126.519 107.165L129.274 116.942Z" fill="#FFB7B7"/>
<path d="M122.987 123.456C123.083 123.824 123.423 124.054 123.746 123.97L128.075 122.834C128.075 122.834 128.052 121.01 129.596 119.817L130.358 122.235L132.591 121.649L131.287 117.781C131.287 117.781 131.332 115.517 129.809 114.766C128.285 114.014 129.33 113.9 129.33 113.9L128.202 111.59L124.931 112.873L125.91 116.706L125.269 120.934L123.178 122.751C122.992 122.913 122.917 123.19 122.987 123.456Z" fill="#2F2E41"/>
<path d="M134.755 64.3477L136.173 64.8206C138.392 68.9173 139.332 74.3576 139.207 80.9178L136.687 110.383H132.564L129.547 77.5578L124.227 89.8781L128.119 110.383L124.227 110.779L116.387 89.4581L121.847 64.6774L134.755 64.3477Z" fill="#2F2E41"/>
</g>
</g>
<defs>
<clipPath id="clip0_636_435">
<rect width="190" height="124" fill="white"/>
</clipPath>
<clipPath id="clip1_636_435">
<rect width="129" height="123.783" fill="white" transform="translate(31 0.32373)"/>
</clipPath>
</defs>
</svg>
