<svg width="190" height="124" viewBox="0 0 190 124" fill="none" xmlns="http://www.w3.org/2000/svg">
<g clip-path="url(#clip0_636_3)">
<path d="M94.8838 62.804C92.7189 62.804 90.6427 61.9441 89.112 60.4133C87.5812 58.8825 86.7212 56.8063 86.7212 54.6415C86.7212 52.4767 87.5812 50.4005 89.112 48.8697C90.6427 47.3389 92.7189 46.479 94.8838 46.479C94.9229 46.479 94.9614 46.4814 95.0004 46.4819V36.8977L94.9179 36.8153L94.8334 36.8998C93.2975 35.3816 91.4678 34.1931 89.4563 33.4072C87.4448 32.6213 85.294 32.2545 83.1358 32.3294C80.9775 32.4042 78.8573 32.9191 76.9051 33.8425C74.9529 34.7659 73.2099 36.0783 71.783 37.6993C70.356 39.3203 69.2752 41.2156 68.6068 43.2691C67.9384 45.3227 67.6965 47.4911 67.8959 49.6414C68.0953 51.7917 68.7318 53.8787 69.7664 55.7743C70.8011 57.6698 72.212 59.3341 73.9127 60.6651L93.3969 80.1493C93.522 80.2744 93.6814 80.3597 93.855 80.3945C94.0285 80.4292 94.2084 80.4117 94.3721 80.3444C94.5357 80.277 94.6758 80.1627 94.7746 80.0159C94.8734 79.869 94.9266 79.6963 94.9273 79.5193L95.0004 62.8011C94.9614 62.8017 94.9229 62.804 94.8838 62.804Z" fill="#00B0FF"/>
<path d="M118.799 38.267C118.399 37.7558 117.968 37.2697 117.508 36.8114C116.036 35.3388 114.288 34.1707 112.364 33.3737C110.439 32.5767 108.377 32.1665 106.295 32.1665C104.212 32.1665 102.15 32.5767 100.226 33.3737C98.3018 34.1706 96.5536 35.3388 95.081 36.8114C95.0533 36.839 95.028 36.8681 95.0005 36.8959L94.9985 36.8939V46.4781C94.9595 46.4775 94.921 46.4751 94.8819 46.4751C94.5305 46.4759 94.1796 46.4991 93.8312 46.5447C93.704 46.0321 93.4585 45.5564 93.1144 45.1556C92.7703 44.7549 92.3372 44.4402 91.8497 44.2369C91.3622 44.0336 90.8339 43.9472 90.307 43.9846C89.7802 44.0221 89.2694 44.1824 88.8156 44.4527C88.3618 44.723 87.9776 45.0957 87.6937 45.5411C87.4098 45.9865 87.2341 46.4922 87.1806 47.0177C87.1272 47.5432 87.1976 48.0739 87.386 48.5673C87.5745 49.0607 87.8759 49.5032 88.266 49.8592C88.0707 50.1285 87.8921 50.4095 87.7311 50.7006C87.2692 50.6218 86.7959 50.6397 86.3413 50.7533C85.8867 50.8669 85.4606 51.0737 85.0901 51.3605C84.7195 51.6474 84.4126 52.008 84.1887 52.4197C83.9648 52.8313 83.8288 53.2849 83.7894 53.7519C83.7499 54.2188 83.8078 54.6888 83.9595 55.1322C84.1112 55.5756 84.3533 55.9826 84.6704 56.3276C84.9876 56.6725 85.3729 56.9478 85.8021 57.1361C86.2312 57.3243 86.6947 57.4214 87.1633 57.4212C87.1777 57.4212 87.1917 57.4192 87.2061 57.4191C87.4405 58.0649 87.7558 58.6785 88.1444 59.2451C87.8745 59.6242 87.6858 60.055 87.59 60.5104C87.4943 60.9658 87.4934 61.4361 87.5877 61.8919C87.6819 62.3476 87.8691 62.779 88.1376 63.1591C88.4061 63.5392 88.7502 63.8599 89.1482 64.101C89.5463 64.3421 89.9898 64.4985 90.451 64.5604C90.9123 64.6223 91.3813 64.5884 91.8289 64.4608C92.2765 64.3332 92.6929 64.1147 93.0521 63.8189C93.4114 63.523 93.7057 63.1563 93.9168 62.7415C94.2371 62.78 94.5593 62.7996 94.8819 62.8002C94.921 62.8002 94.9595 62.7978 94.9985 62.7973V79.4196C94.9985 79.597 95.051 79.7703 95.1496 79.9177C95.2481 80.0652 95.3881 80.1801 95.5519 80.2479C95.7157 80.3158 95.896 80.3335 96.0699 80.2989C96.2438 80.2643 96.4035 80.179 96.5289 80.0536L116.086 60.4963C119.394 57.9082 121.538 54.1123 122.046 49.9435C122.555 45.7747 121.387 41.5745 118.799 38.267Z" fill="#F2F2F2"/>
<path d="M149.156 118.046L146.856 118.011L145.898 109.126L149.292 109.178L149.156 118.046Z" fill="#FFB6B6"/>
<path d="M150.294 121.872L150.279 121.655L150.206 120.574L149.929 116.484L149.179 116.427L146.662 116.238L146.258 116.206L146.236 117.782L142.705 120.138C142.556 120.238 142.437 120.377 142.361 120.54C142.286 120.703 142.256 120.884 142.275 121.062C142.295 121.241 142.363 121.411 142.472 121.554C142.581 121.696 142.728 121.806 142.895 121.872C143.003 121.915 143.119 121.938 143.236 121.94L147.61 122.007L147.678 121.872L148.387 120.461L148.631 121.872L148.658 122.023L150.306 122.048L150.294 121.872Z" fill="#2F2E41"/>
<path d="M153.85 115.114L152.037 116.528L145.719 110.208L148.394 108.121L153.85 115.114Z" fill="#FFB6B6"/>
<path d="M157.256 117.508L153.473 113.409L152.852 113.836L150.775 115.267L150.441 115.497L151.41 116.739L150.207 120.574L150.139 120.788C150.093 120.934 150.082 121.088 150.106 121.238C150.131 121.389 150.19 121.531 150.279 121.655C150.286 121.666 150.295 121.675 150.301 121.687C150.356 121.758 150.422 121.82 150.495 121.872C150.665 121.997 150.87 122.064 151.08 122.064C151.291 122.065 151.496 121.997 151.665 121.872C151.672 121.867 151.676 121.863 151.683 121.858L155.13 119.168L154.766 117.477L155.956 118.522L157.256 117.508Z" fill="#2F2E41"/>
<path d="M155.621 59.4937L152.704 48.6943C152.579 48.2371 152.279 47.8474 151.869 47.6092C151.459 47.3711 150.972 47.3036 150.513 47.4214C150.284 47.4803 150.068 47.5838 149.878 47.7261C149.688 47.8685 149.529 48.0467 149.408 48.2508C149.287 48.4549 149.208 48.6807 149.174 48.9155C149.141 49.1502 149.154 49.3892 149.213 49.6189C149.221 49.6499 149.23 49.6806 149.239 49.711L152.614 60.8361L154.379 67.6825C154.122 67.8789 153.932 68.1497 153.834 68.458C153.736 68.7664 153.735 69.0975 153.832 69.4062C153.929 69.7149 154.118 69.9864 154.375 70.1837C154.631 70.381 154.942 70.4946 155.265 70.509C155.589 70.5234 155.909 70.438 156.182 70.2643C156.455 70.0906 156.667 69.8371 156.791 69.5382C156.915 69.2394 156.944 68.9096 156.874 68.5937C156.804 68.2778 156.638 67.9912 156.4 67.7727L155.621 59.4937Z" fill="#FFB8B8"/>
<path d="M134.412 57.3033L142.2 49.2721C142.529 48.9309 142.71 48.474 142.705 48.0001C142.7 47.5262 142.509 47.0732 142.173 46.7389C142.005 46.5717 141.806 46.4392 141.586 46.349C141.367 46.2589 141.132 46.2128 140.895 46.2134C140.658 46.214 140.423 46.2613 140.204 46.3526C139.986 46.4439 139.787 46.5774 139.62 46.7455C139.597 46.7682 139.575 46.7914 139.554 46.8152L131.721 55.4056L126.741 60.4248C126.441 60.3043 126.11 60.2791 125.795 60.3527C125.48 60.4263 125.196 60.5951 124.98 60.8362C124.764 61.0773 124.628 61.3789 124.589 61.7002C124.551 62.0215 124.612 62.3468 124.765 62.6319C124.918 62.917 125.155 63.1481 125.444 63.2939C125.733 63.4396 126.06 63.4929 126.38 63.4464C126.7 63.4 126.998 63.2561 127.234 63.0344C127.469 62.8126 127.631 62.5237 127.697 62.2069L134.412 57.3033Z" fill="#FFB8B8"/>
<path d="M140.172 58.9443L141.706 65.7396L151.705 65.1146C150.661 61.6077 150.296 60.9 151.081 58.4595L140.172 58.9443Z" fill="#FFB8B8"/>
<path d="M147.714 42.9448H143.625L141.869 45.9492L141.033 45.903C139.306 45.8077 135.145 49.4741 135.145 51.204L137.537 54.2821L139.62 52.4072C139.62 52.4072 137.04 53.7228 139.696 55.3034C139.696 55.3034 139.222 58.2813 139.696 58.2493C140.169 58.2173 141.26 57.6112 140.169 58.2173C139.078 58.8233 139.16 58.9047 139.301 59.0459L139.442 59.187L150.913 61.1131C150.913 61.1131 151.249 58.8894 151.285 58.4927C151.321 58.0961 151.078 59.0658 151.321 58.0961C151.563 57.1263 151.927 57.49 151.563 57.1263C151.2 56.7627 152.253 52.2576 151.135 50.5101L150.661 55.9487L154.619 54.6987C155.103 52.5276 154.664 50.2998 153.578 48.0324C153.578 46.3561 151.901 45.7275 150.225 45.7275H150.01L147.714 42.9448Z" fill="#E6E6E6"/>
<path d="M152.095 64.48L152.441 68.3205C152.441 68.3205 156.326 72.1753 155.009 77.1225C153.691 82.0698 151.238 95.5468 151.238 95.5468C151.238 95.5468 152.544 107.734 149.785 113.026L145.635 112.199L143.156 95.6649L142.025 76.8617L141.133 71.5211L141.703 65.3231L152.095 64.48Z" fill="#2F2E41"/>
<path d="M143.894 69.3276L141.134 71.5211L135.168 97.0821L148.46 114.039L151.025 111.668L142.121 96.1548L144.204 82.1972L142.651 75.6117L143.894 69.3276Z" fill="#2F2E41"/>
<path d="M139.77 37.2666C141.168 39.6754 138.535 43.7342 141.188 44.577L140.97 44.3584C139.368 42.3881 142.716 38.218 141.114 36.2478C140.865 35.9588 140.652 35.6412 140.478 35.3018L139.77 37.2666Z" fill="#2F2E41"/>
<path d="M150.679 36.9015C150.679 37.6822 150.488 38.451 150.122 39.1404C149.756 39.8299 149.226 40.4189 148.579 40.8558C147.932 41.2926 147.187 41.564 146.411 41.6461C145.635 41.7281 144.85 41.6184 144.126 41.3264C143.402 41.0344 142.761 40.5692 142.259 39.9716C141.756 39.3739 141.409 38.6621 141.246 37.8986C141.083 37.1352 141.11 36.3434 141.324 35.5928C141.539 34.8421 141.934 34.1557 142.476 33.5936L142.499 33.5707C142.537 33.5307 142.575 33.4906 142.615 33.4524C142.616 33.4524 142.616 33.4524 142.616 33.4523C142.616 33.4522 142.616 33.4521 142.617 33.4519C142.617 33.4517 142.617 33.4515 142.617 33.4513C142.617 33.4511 142.617 33.4508 142.617 33.4506C142.667 33.4048 142.716 33.359 142.768 33.3151C143.457 32.7109 144.306 32.3181 145.212 32.1838C146.119 32.0495 147.045 32.1793 147.88 32.5577C148.714 32.9361 149.422 33.5471 149.919 34.3175C150.415 35.0879 150.679 35.985 150.679 36.9015Z" fill="#2F2E41"/>
<path d="M144.737 42.0042C146.946 42.0042 148.737 40.2137 148.737 38.005C148.737 35.7964 146.946 34.0059 144.737 34.0059C142.529 34.0059 140.738 35.7964 140.738 38.005C140.738 40.2137 142.529 42.0042 144.737 42.0042Z" fill="#FFB8B8"/>
<path d="M147.593 34.16C146.973 33.5801 146.203 33.1868 145.37 33.0251C144.537 32.8634 143.675 32.9398 142.884 33.2458C142.864 33.2548 142.841 33.2638 142.821 33.2729C142.742 33.3045 142.663 33.3406 142.584 33.3789L142.539 33.3993V33.406L142.512 33.4263C142.493 33.4434 142.47 33.4558 142.446 33.4625C142.099 33.4532 141.753 33.5174 141.432 33.6508C141.111 33.7842 140.822 33.9839 140.584 34.2367C139.965 34.9094 139.672 35.9974 139.762 37.2976L139.764 37.3383L139.8 37.3608C139.812 37.3676 139.821 37.3744 139.832 37.3812C140.148 37.5775 140.448 37.7513 140.74 37.9048C140.916 37.9996 141.087 38.0854 141.259 38.1644L141.32 38.1915C141.385 38.2231 141.453 38.2525 141.518 38.2818C143.171 39.0042 144.694 39.117 146.157 38.6317L146.184 38.6227L146.676 37.7987L146.832 37.5392C146.866 37.7243 146.886 38.0154 146.909 38.3495C146.934 38.8711 146.992 39.3905 147.083 39.9048V39.9093C147.173 40.3653 147.313 40.7332 147.543 40.8551C147.577 40.8769 147.616 40.8915 147.656 40.898L148.022 40.415L148.983 39.1464L148.999 39.0719C149.39 37.3089 148.825 35.336 147.593 34.16Z" fill="#2F2E41"/>
<path d="M163.397 41.1146C162.587 42.1891 160.465 44.0062 159.275 44.6337C159.156 44.6969 159.036 44.7556 158.914 44.8098C159.033 44.5255 159.056 44.21 158.98 43.9114C158.844 43.5538 158.624 43.234 158.339 42.9791C157.605 42.2094 156.871 41.4404 156.135 40.6722C156.629 41.3266 156.981 42.0774 157.167 42.876C157.352 43.6746 157.369 44.5034 157.214 45.3087C156.601 45.4002 155.977 45.3819 155.37 45.2545C154.056 44.9701 152.851 44.0807 152.33 42.8414C151.885 41.794 151.948 40.6044 152.09 39.4758C152.233 38.3471 152.451 37.2049 152.293 36.0786C152.138 34.9499 151.517 33.8054 150.458 33.3856C150.511 33.4284 150.553 33.4819 150.583 33.5425C150.613 33.6032 150.63 33.6695 150.632 33.7371C150.634 33.8047 150.622 33.872 150.596 33.9344C150.569 33.9968 150.53 34.0529 150.481 34.0989C150.321 34.2363 150.113 34.3059 149.903 34.293C149.837 34.2936 149.771 34.2883 149.707 34.2772C148.865 34.144 148.248 33.4398 147.711 32.7761C147.575 32.757 147.447 32.7011 147.341 32.6143C147.235 32.5276 147.154 32.4133 147.108 32.284C147.058 32.1479 147.058 31.998 147.108 31.8619C147.161 31.7574 147.239 31.6676 147.335 31.6005C147.431 31.5333 147.542 31.4909 147.658 31.4771C147.774 31.4632 147.892 31.4783 148.001 31.521C148.11 31.5638 148.206 31.6328 148.282 31.722C148.203 31.4005 148.194 31.0657 148.256 30.7405C148.318 30.4152 148.449 30.1071 148.641 29.8372C148.833 29.5673 149.08 29.3419 149.367 29.1763C149.654 29.0107 149.973 28.9089 150.303 28.8778C151.275 28.7852 152.822 28.6385 153.465 29.3766C154.469 30.5324 156.011 31.6904 156.174 33.214C156.334 34.7355 157.176 34.433 157.528 35.9228C157.88 37.4149 159.327 37.9295 160.688 38.6316C162.21 39.4171 162 42.1078 163.397 41.1146Z" fill="#2F2E41"/>
<path d="M146.645 37.7466C148.043 40.1554 145.41 44.2141 148.063 45.057L147.845 44.8383C146.243 42.8681 149.591 38.698 147.989 36.7277C147.74 36.4387 147.527 36.1212 147.353 35.7817L146.645 37.7466Z" fill="#2F2E41"/>
<path d="M148.811 39.0343C148.352 37.6486 147.528 36.4121 146.426 35.4545C145.324 34.4969 143.985 33.8534 142.548 33.5917C142.543 33.5898 142.524 33.5822 142.499 33.5707C142.483 33.5612 142.464 33.5516 142.445 33.5421C142.503 33.5097 142.558 33.4811 142.615 33.4524C142.615 33.4524 142.616 33.4524 142.616 33.4523C142.616 33.4522 142.616 33.4521 142.616 33.4519C142.617 33.4518 142.617 33.4515 142.617 33.4513C142.617 33.4511 142.617 33.4509 142.617 33.4506C142.667 33.4048 142.716 33.359 142.768 33.3151L142.913 33.3208C142.913 33.3208 148.008 32.5139 148.811 39.0343Z" fill="#FD6584"/>
<path d="M69.1056 49.4249C69.0526 49.8023 68.8544 50.144 68.5533 50.3775C68.2522 50.611 67.8718 50.7178 67.4932 50.6751C67.4164 50.6652 67.3405 50.649 67.2663 50.6266L60.9144 58.324L58.8828 55.6153L66.3719 48.7516C66.4886 48.4513 66.7015 48.1981 66.9772 48.0315C67.2529 47.8649 67.5761 47.7943 67.8962 47.8306C68.0781 47.853 68.2539 47.9111 68.4134 48.0015C68.5729 48.0918 68.713 48.2127 68.8258 48.3572C68.9386 48.5017 69.0218 48.6671 69.0707 48.8438C69.1196 49.0204 69.1332 49.205 69.1108 49.387C69.1092 49.3996 69.1075 49.4123 69.1056 49.4249Z" fill="#A0616A"/>
<path d="M50.3105 47.9203C50.3105 47.9203 54.5496 47.4392 55.4526 49.4707C56.3555 51.5023 58.631 55.7325 58.631 55.7325C58.631 55.7325 57.4641 56.2296 58.6558 54.9382C59.1898 54.3594 58.2043 54.7124 58.8815 54.4867C59.5587 54.261 59.7844 54.4867 59.7844 54.4867L62.0417 58.3241C62.0417 58.3241 61.8601 59.1986 60.6873 59.2271C59.5145 59.2555 61.3645 58.0984 59.7844 59.6785C58.9685 60.4944 58.4155 60.1842 58.4155 60.1842L48.4336 54.6606L50.3105 47.9203Z" fill="#3F3D56"/>
<path d="M30.9428 78.2403C31.2137 77.9723 31.3694 77.6092 31.3767 77.2283C31.3839 76.8473 31.2423 76.4785 30.9818 76.2004C30.928 76.1447 30.8696 76.0936 30.8073 76.0475L33.8263 65.0962L30.2146 63.5161L28.7694 76.4507C28.5984 76.7237 28.5225 77.0457 28.5537 77.3663C28.5849 77.6869 28.7213 77.9883 28.9418 78.2232C29.0685 78.3557 29.22 78.4619 29.3878 78.5358C29.5556 78.6097 29.7363 78.6499 29.9195 78.654C30.1028 78.658 30.2851 78.626 30.456 78.5596C30.6269 78.4932 30.783 78.3939 30.9155 78.2672C30.9247 78.2583 30.9339 78.2494 30.9428 78.2403Z" fill="#A0616A"/>
<path d="M39.1706 46.7131C39.1706 46.7131 37.3528 44.0498 34.2459 47.5099C31.1389 50.97 30.1703 59.9939 30.316 60.5609C30.4618 61.1279 31.2811 60.8026 30.3071 61.7553C29.3331 62.708 28.6559 62.0308 29.3331 62.708C30.0103 63.3852 29.7919 64.399 28.6338 64.6446C27.4756 64.8903 33.6125 65.8662 33.6125 65.8662C33.6125 65.8662 34.269 65.6264 34.2967 64.0447C34.3123 63.1563 33.8608 62.7048 34.538 62.4791C35.2152 62.2534 34.3825 60.746 34.4537 60.4855C34.5249 60.225 37.4594 55.4846 37.4594 55.4846L39.1706 46.7131Z" fill="#3F3D56"/>
<path d="M80.0625 112.022C80.1568 111.373 79.4776 110.737 78.5453 110.602C77.6131 110.466 76.7808 110.882 76.6865 111.53C76.5921 112.179 77.2714 112.815 78.2036 112.95C79.1359 113.086 79.9681 112.67 80.0625 112.022Z" fill="#F2F2F2"/>
<path d="M91.1601 110.939C91.2545 110.29 90.5752 109.654 89.643 109.519C88.7107 109.383 87.8785 109.799 87.7841 110.447C87.6898 111.096 88.369 111.732 89.3013 111.867C90.2335 112.003 91.0658 111.587 91.1601 110.939Z" fill="#F2F2F2"/>
<path d="M77.0234 103.036C77.1178 102.387 76.4385 101.751 75.5063 101.616C74.574 101.48 73.7418 101.896 73.6474 102.544C73.5531 103.193 74.2323 103.829 75.1646 103.964C76.0968 104.1 76.929 103.684 77.0234 103.036Z" fill="#F2F2F2"/>
<path d="M72.1994 99.3547C72.2039 98.7593 71.8718 98.2742 71.4576 98.271C71.0435 98.2679 70.7041 98.748 70.6996 99.3434C70.6951 99.9387 71.0272 100.424 71.4413 100.427C71.8555 100.43 72.1949 99.9501 72.1994 99.3547Z" fill="#F2F2F2"/>
<path d="M70.5627 92.4988C70.5672 91.9034 70.2351 91.4182 69.8209 91.4151C69.4067 91.4119 69.0673 91.892 69.0628 92.4874C69.0583 93.0828 69.3904 93.568 69.8046 93.5711C70.2188 93.5742 70.5582 93.0941 70.5627 92.4988Z" fill="#F2F2F2"/>
<path d="M83.2814 104.565C83.2859 103.969 82.9538 103.484 82.5397 103.481C82.1255 103.478 81.7861 103.958 81.7816 104.553C81.7771 105.149 82.1092 105.634 82.5234 105.637C82.9375 105.64 83.2769 105.16 83.2814 104.565Z" fill="#F2F2F2"/>
<path d="M77.9182 107.243C77.9227 106.648 77.5906 106.162 77.1764 106.159C76.7622 106.156 76.4228 106.636 76.4183 107.232C76.4138 107.827 76.7459 108.312 77.1601 108.315C77.5743 108.318 77.9137 107.838 77.9182 107.243Z" fill="#F2F2F2"/>
<path d="M85.3869 112.193C85.3914 111.597 85.0593 111.112 84.6451 111.109C84.231 111.106 83.8916 111.586 83.8871 112.181C83.8826 112.777 84.2147 113.262 84.6288 113.265C85.043 113.268 85.3824 112.788 85.3869 112.193Z" fill="#F2F2F2"/>
<path d="M123.402 32.564C123.497 31.9155 122.817 31.2798 121.885 31.1441C120.953 31.0085 120.121 31.4243 120.026 32.0728C119.932 32.7213 120.611 33.357 121.543 33.4927C122.476 33.6283 123.308 33.2125 123.402 32.564Z" fill="#F2F2F2"/>
<path d="M134.5 31.481C134.594 30.8325 133.915 30.1968 132.983 30.0612C132.051 29.9255 131.218 30.3413 131.124 30.9898C131.03 31.6383 131.709 32.274 132.641 32.4097C133.573 32.5453 134.406 32.1295 134.5 31.481Z" fill="#F2F2F2"/>
<path d="M120.363 23.5782C120.458 22.9296 119.778 22.2939 118.846 22.1583C117.914 22.0227 117.082 22.4384 116.987 23.087C116.893 23.7355 117.572 24.3712 118.504 24.5068C119.437 24.6425 120.269 24.2267 120.363 23.5782Z" fill="#F2F2F2"/>
<path d="M115.539 19.8977C115.544 19.3023 115.212 18.8171 114.797 18.814C114.383 18.8109 114.044 19.291 114.039 19.8863C114.035 20.4817 114.367 20.9669 114.781 20.97C115.195 20.9732 115.535 20.4931 115.539 19.8977Z" fill="#F2F2F2"/>
<path d="M113.903 13.0417C113.907 12.4464 113.575 11.9612 113.161 11.958C112.747 11.9549 112.407 12.435 112.403 13.0304C112.398 13.6258 112.73 14.1109 113.144 14.1141C113.559 14.1172 113.898 13.6371 113.903 13.0417Z" fill="#F2F2F2"/>
<path d="M126.621 25.1076C126.626 24.5123 126.294 24.0271 125.88 24.024C125.465 24.0208 125.126 24.5009 125.121 25.0963C125.117 25.6917 125.449 26.1769 125.863 26.18C126.277 26.1831 126.617 25.703 126.621 25.1076Z" fill="#F2F2F2"/>
<path d="M121.258 27.7854C121.263 27.19 120.93 26.7048 120.516 26.7017C120.102 26.6986 119.763 27.1787 119.758 27.774C119.754 28.3694 120.086 28.8546 120.5 28.8577C120.914 28.8609 121.254 28.3807 121.258 27.7854Z" fill="#F2F2F2"/>
<path d="M128.727 32.7351C128.731 32.1397 128.399 31.6545 127.985 31.6514C127.571 31.6482 127.231 32.1284 127.227 32.7237C127.222 33.3191 127.555 33.8043 127.969 33.8074C128.383 33.8106 128.722 33.3305 128.727 32.7351Z" fill="#F2F2F2"/>
<path d="M118.137 0H71.8621C70.9342 0 70.0442 0.368624 69.3881 1.02478C68.7319 1.68094 68.3633 2.57088 68.3633 3.49882C68.3633 4.42677 68.7319 5.3167 69.3881 5.97286C70.0442 6.62902 70.9342 6.99764 71.8621 6.99764H118.137C119.065 6.99764 119.955 6.62902 120.611 5.97286C121.267 5.3167 121.636 4.42677 121.636 3.49882C121.636 2.57088 121.267 1.68094 120.611 1.02478C119.955 0.368624 119.065 0 118.137 0Z" fill="#E6E6E6"/>
<path d="M158.672 12.5925H31.3288C31.1835 12.5893 31.0453 12.5293 30.9437 12.4255C30.8421 12.3216 30.7852 12.1821 30.7852 12.0367C30.7852 11.8914 30.8421 11.7519 30.9437 11.648C31.0453 11.5441 31.1835 11.4842 31.3288 11.481H158.672C158.818 11.4842 158.956 11.5441 159.058 11.648C159.159 11.7519 159.216 11.8914 159.216 12.0367C159.216 12.1821 159.159 12.3216 159.058 12.4255C158.956 12.5293 158.818 12.5893 158.672 12.5925Z" fill="#E6E6E6"/>
<path d="M37.6863 5.48299C38.7405 5.48299 39.5952 4.60929 39.5952 3.53153C39.5952 2.45377 38.7405 1.58008 37.6863 1.58008C36.632 1.58008 35.7773 2.45377 35.7773 3.53153C35.7773 4.60929 36.632 5.48299 37.6863 5.48299Z" fill="#E6E6E6"/>
<path d="M44.2839 5.48299C45.3382 5.48299 46.1928 4.60929 46.1928 3.53153C46.1928 2.45377 45.3382 1.58008 44.2839 1.58008C43.2297 1.58008 42.375 2.45377 42.375 3.53153C42.375 4.60929 43.2297 5.48299 44.2839 5.48299Z" fill="#E6E6E6"/>
<path d="M50.8777 5.48299C51.9319 5.48299 52.7866 4.60929 52.7866 3.53153C52.7866 2.45377 51.9319 1.58008 50.8777 1.58008C49.8234 1.58008 48.9688 2.45377 48.9688 3.53153C48.9688 4.60929 49.8234 5.48299 50.8777 5.48299Z" fill="#E6E6E6"/>
<path d="M58.3966 5.07363C58.3665 5.07367 58.3368 5.06769 58.309 5.05603C58.2813 5.04437 58.2562 5.02726 58.2352 5.00574L56.9472 3.68905C56.9059 3.64689 56.8828 3.59023 56.8828 3.53122C56.8828 3.47221 56.9059 3.41555 56.9472 3.37338L58.2352 2.0568C58.2557 2.0353 58.2803 2.01805 58.3074 2.00605C58.3346 1.99405 58.3639 1.98753 58.3936 1.98687C58.4233 1.98621 58.4528 1.99142 58.4805 2.00219C58.5082 2.01297 58.5335 2.02911 58.5549 2.04967C58.5764 2.07024 58.5935 2.09484 58.6054 2.12206C58.6173 2.14927 58.6238 2.17857 58.6243 2.20827C58.6249 2.23798 58.6196 2.2675 58.6087 2.29514C58.5978 2.32279 58.5816 2.34802 58.561 2.36938L58.558 2.37248L57.4243 3.53122L58.558 4.69007C58.589 4.72184 58.61 4.76206 58.6183 4.80571C58.6266 4.84935 58.6219 4.89448 58.6047 4.93544C58.5874 4.97639 58.5585 5.01135 58.5215 5.03594C58.4845 5.06052 58.441 5.07363 58.3966 5.07363Z" fill="#E6E6E6"/>
<path d="M60.5617 5.07393C60.5172 5.07393 60.4738 5.06082 60.4368 5.03623C60.3998 5.01165 60.3708 4.97669 60.3536 4.93574C60.3364 4.89478 60.3316 4.84965 60.3399 4.80601C60.3482 4.76236 60.3692 4.72214 60.4003 4.69037L61.5338 3.53152L60.4003 2.37278C60.3591 2.32985 60.3365 2.2724 60.3374 2.2129C60.3384 2.15341 60.3628 2.09669 60.4053 2.05509C60.4478 2.01348 60.5051 1.99035 60.5646 1.99073C60.6241 1.99111 60.681 2.01496 60.723 2.0571L62.0109 3.37368C62.0522 3.41585 62.0753 3.47251 62.0753 3.53152C62.0753 3.59053 62.0522 3.64719 62.0109 3.68935L60.723 5.00604C60.702 5.02756 60.6769 5.04467 60.6492 5.05633C60.6215 5.06799 60.5917 5.07397 60.5617 5.07393Z" fill="#E6E6E6"/>
<path d="M147.807 1.80566H145.412C145.347 1.80564 145.283 1.81841 145.223 1.84323C145.163 1.86804 145.109 1.90443 145.063 1.95031C145.017 1.99618 144.981 2.05065 144.956 2.11061C144.931 2.17056 144.918 2.23482 144.918 2.29972V4.69727C144.918 4.82834 144.97 4.95406 145.063 5.04676C145.155 5.13947 145.281 5.19158 145.412 5.19162H147.807C147.939 5.19174 148.065 5.13977 148.158 5.0471C148.251 4.95443 148.303 4.82862 148.304 4.69727V2.30001C148.303 2.16866 148.251 2.04285 148.158 1.95018C148.065 1.85751 147.939 1.80554 147.807 1.80566Z" fill="#E6E6E6"/>
<path d="M141.94 1.80566H139.545C139.48 1.80564 139.416 1.81841 139.356 1.84323C139.296 1.86804 139.242 1.90443 139.196 1.95031C139.15 1.99618 139.113 2.05065 139.088 2.11061C139.064 2.17056 139.051 2.23482 139.051 2.29972V4.69727C139.051 4.82834 139.103 4.95406 139.195 5.04676C139.288 5.13947 139.414 5.19158 139.545 5.19162H141.94C142.071 5.19174 142.198 5.13977 142.291 5.0471C142.384 4.95443 142.436 4.82862 142.437 4.69727V2.30001C142.436 2.16866 142.384 2.04285 142.291 1.95018C142.198 1.85751 142.071 1.80554 141.94 1.80566Z" fill="#E6E6E6"/>
<path d="M153.339 1.91895H150.944C150.879 1.91893 150.814 1.93169 150.754 1.95651C150.694 1.98132 150.64 2.01771 150.594 2.06359C150.548 2.10947 150.512 2.16393 150.487 2.22389C150.462 2.28384 150.449 2.3481 150.449 2.413V4.81055C150.449 4.94162 150.501 5.06734 150.594 5.16005C150.687 5.25275 150.812 5.30486 150.943 5.3049H153.339C153.47 5.30503 153.596 5.25306 153.689 5.16038C153.782 5.06771 153.835 4.9419 153.835 4.81055V2.41329C153.835 2.28194 153.782 2.15613 153.689 2.06346C153.596 1.97079 153.47 1.91882 153.339 1.91895Z" fill="#E6E6E6"/>
<path d="M92.3922 2.83057H73.248C73.1688 2.83047 73.0904 2.84597 73.0173 2.87617C72.9441 2.90637 72.8776 2.95069 72.8216 3.00658C72.7655 3.06248 72.7211 3.12887 72.6907 3.20196C72.6603 3.27504 72.6446 3.3534 72.6445 3.43255C72.6444 3.51169 72.6599 3.59008 72.6901 3.66324C72.7203 3.7364 72.7646 3.8029 72.8205 3.85893C72.8764 3.91496 72.9428 3.95944 73.0159 3.98982C73.089 4.02019 73.1674 4.03588 73.2465 4.03597H92.3922C92.552 4.03597 92.7053 3.97247 92.8183 3.85944C92.9314 3.74641 92.9948 3.59312 92.9948 3.43327C92.9948 3.27342 92.9314 3.12012 92.8183 3.00709C92.7053 2.89407 92.552 2.83057 92.3922 2.83057Z" fill="white"/>
<path d="M43.4926 119.755L45.7276 119.754L46.7908 111.134L43.4922 111.134L43.4926 119.755Z" fill="#A0616A"/>
<path d="M43.4142 122.086L50.287 122.086V121.999C50.2869 121.29 50.0051 120.609 49.5034 120.108C49.0017 119.606 48.3214 119.324 47.6119 119.324L46.3563 118.372L44.014 119.324L43.4141 119.324L43.4142 122.086Z" fill="#2F2E41"/>
<path d="M33.7856 119.755L36.0206 119.754L37.0838 111.134L33.7852 111.134L33.7856 119.755Z" fill="#A0616A"/>
<path d="M33.7071 122.086L40.58 122.086V121.999C40.5799 121.29 40.298 120.609 39.7964 120.108C39.2947 119.606 38.6143 119.324 37.9049 119.324L36.6493 118.372L34.307 119.324L33.707 119.324L33.7071 122.086Z" fill="#2F2E41"/>
<path d="M50.1137 72.9663C50.1137 72.9663 52.6578 76.5129 50.8214 82.6402C48.9851 88.7675 51.3703 94.2454 50.8549 95.3439C50.3394 96.4423 49.3018 97.4855 50.1592 98.3183C51.0166 99.1511 51.4681 99.8283 50.7909 100.054C50.1137 100.28 46.502 116.081 46.502 116.081L42.6646 116.307C42.6646 116.307 41.2745 108.967 42.7596 103.043C42.7596 103.043 42.4336 98.7428 43.1134 97.4797C43.7933 96.2166 43.66 97.3559 43.6137 95.7705C43.5882 94.6238 43.421 93.4848 43.1161 92.3792C42.8903 91.4762 42.7596 82.3759 42.7596 82.3759L40.4796 94.5198C40.3297 94.9359 40.2735 95.3799 40.3149 95.8202C40.4073 96.4423 40.4081 97.3719 40.2948 97.6972C40.1816 98.0224 40.0554 98.0908 40.1185 98.7338C40.1816 99.3768 37.4728 115.526 37.4728 115.526H33.1839L31.1523 98.4739C31.5178 98.0689 31.822 97.6126 32.0553 97.1195C32.5067 96.2166 32.5243 96.1668 32.2898 95.5145C32.0553 94.8622 32.0553 93.5913 32.0553 93.211C32.0553 92.8306 31.8208 75.5629 34.7596 73.0231C37.6985 70.4833 50.1137 72.9663 50.1137 72.9663Z" fill="#2F2E41"/>
<path d="M36.9425 45.8594L41.227 44.7491L43.227 41.9907L47.9767 42.5746L48.9877 46.3371L52.3691 48.2999C52.3691 48.2999 50.5002 68.0674 50.9447 69.1529C51.3893 70.2383 50.3105 71.1463 48.9492 72.5455C47.5879 73.9447 50.0803 72.3835 50.3962 73.9068C50.7121 75.4301 53.0148 77.0422 50.3962 77.0262C47.7776 77.0102 33.3738 77.7373 33.8253 75.9315C34.2767 74.1256 32.8723 73.6313 33.5531 72.4991C34.2338 71.367 34.692 71.9996 34.4629 70.3289C34.2338 68.6582 34.4595 67.5295 34.4595 66.6266C34.4595 65.7237 35.2158 57.5187 35.2158 57.5187L36.9425 45.8594Z" fill="#E6E6E6"/>
<path d="M46.3177 41.5186C49.192 41.5186 51.522 39.1885 51.522 36.3142C51.522 33.4399 49.192 31.1099 46.3177 31.1099C43.4434 31.1099 41.1133 33.4399 41.1133 36.3142C41.1133 39.1885 43.4434 41.5186 46.3177 41.5186Z" fill="#A0616A"/>
<path d="M42.8927 40.3578C44.123 39.3962 42.4413 35.166 44.4728 36.0689C44.4728 36.0689 46.9559 34.4888 47.4547 35.5272C48.0324 36.7295 50.0867 36.184 51.3486 35.7597C51.2494 35.5291 51.1789 35.2873 51.1387 35.0396C51.3716 35.2231 51.6184 35.3884 51.8768 35.5339C52.0501 35.4413 52.2035 35.3155 52.3283 35.1637C52.4514 35.0228 52.5284 34.8475 52.5489 34.6615C52.5695 34.4755 52.5327 34.2876 52.4434 34.1231C52.2334 33.8003 51.8 33.701 51.545 33.4143C51.5155 33.374 51.4962 33.3271 51.4889 33.2778C51.4815 33.2284 51.4862 33.1779 51.5026 33.1308C51.533 33.0154 51.5376 32.8948 51.516 32.7775C51.4945 32.6602 51.4473 32.549 51.3779 32.452C51.3085 32.355 51.2186 32.2745 51.1145 32.2162C51.0104 32.158 50.8948 32.1234 50.7758 32.1149C50.7279 32.1164 50.6804 32.106 50.6375 32.0848C50.4234 31.9537 50.2256 31.7976 50.0484 31.6198C50.345 31.6341 50.6424 31.6258 50.9378 31.5949C50.9987 31.5882 51.0596 31.5814 51.1206 31.5724C51.0077 31.3075 50.839 31.0701 50.6258 30.8765C50.4127 30.6828 50.1603 30.5375 49.8858 30.4505C49.3064 30.2753 48.7033 30.1908 48.0981 30.1999C47.7482 30.1886 47.3983 30.1774 47.0507 30.1661C46.3134 30.1136 45.5726 30.1393 44.8408 30.2428C44.059 30.3854 43.3184 30.699 42.6718 31.161C42.0252 31.623 41.4886 32.2221 41.1004 32.9155C40.3352 34.3037 39.5068 38.7777 42.8927 40.3578Z" fill="#2F2E41"/>
<path d="M52.3385 77.0601C53.1557 78.5183 48.553 78.9472 43.5666 78.7508C43.4702 78.3816 43.3106 78.0318 43.0949 77.717C42.5441 76.9179 43.21 71.5117 42.4064 70.9654C42.7698 71.8457 41.3003 77.6967 40.9933 78.5973C36.4832 78.2362 32.3727 77.4168 32.4223 76.4416C32.4359 76.1572 33.3772 70.7397 33.8331 70.3288C34.2869 69.918 33.8286 62.1619 33.8331 60.4983C33.8354 58.8324 36.3117 46.5865 36.3117 46.135C36.3117 45.6836 42.1807 43.4263 42.1807 43.4263L44.6637 57.6473L48.4379 44.275C48.807 44.7768 49.2335 45.2336 49.7088 45.6362C50.465 46.266 53.4672 48.8438 53.4672 48.8438L50.8961 67.8684C50.8961 67.8684 52.1128 70.7397 52.0496 71.8796C52.0251 72.7841 51.8473 73.6779 51.5236 74.5229C51.1579 75.5951 51.1963 75.0195 52.3385 77.0601Z" fill="#3F3D56"/>
<path d="M94.9992 57.4213C96.8693 57.4213 98.3852 55.9054 98.3852 54.0354C98.3852 52.1654 96.8693 50.6494 94.9992 50.6494C93.1292 50.6494 91.6133 52.1654 91.6133 54.0354C91.6133 55.9054 93.1292 57.4213 94.9992 57.4213Z" fill="white"/>
<path d="M14 122.141C13.9999 122.176 14.0067 122.211 14.0201 122.243C14.0334 122.276 14.0531 122.305 14.0779 122.33C14.1027 122.355 14.1321 122.375 14.1646 122.389C14.197 122.402 14.2318 122.409 14.267 122.409H175.731C175.803 122.409 175.871 122.381 175.921 122.331C175.972 122.28 176 122.212 176 122.141C176 122.069 175.972 122.001 175.921 121.951C175.871 121.9 175.803 121.872 175.731 121.872H14.2686C14.2334 121.872 14.1986 121.879 14.1661 121.892C14.1335 121.906 14.1039 121.925 14.079 121.95C14.0541 121.975 14.0342 122.004 14.0207 122.037C14.0071 122.069 14.0001 122.104 14 122.139V122.141Z" fill="#CCCCCC"/>
<path d="M96.468 53.5839H95.4522V52.5682C95.4522 52.4484 95.4046 52.3336 95.32 52.2489C95.2353 52.1643 95.1205 52.1167 95.0007 52.1167C94.881 52.1167 94.7662 52.1643 94.6815 52.2489C94.5969 52.3336 94.5493 52.4484 94.5493 52.5682V53.5839H93.5335C93.4138 53.5839 93.2989 53.6315 93.2143 53.7162C93.1296 53.8008 93.082 53.9157 93.082 54.0354C93.082 54.1551 93.1296 54.27 93.2143 54.3546C93.2989 54.4393 93.4138 54.4869 93.5335 54.4869H94.5493V55.5027C94.5493 55.6224 94.5969 55.7372 94.6815 55.8219C94.7662 55.9066 94.881 55.9541 95.0007 55.9541C95.1205 55.9541 95.2353 55.9066 95.32 55.8219C95.4046 55.7372 95.4522 55.6224 95.4522 55.5027V54.4869H96.468C96.5877 54.4869 96.7026 54.4393 96.7872 54.3546C96.8719 54.27 96.9194 54.1551 96.9194 54.0354C96.9194 53.9157 96.8719 53.8008 96.7872 53.7162C96.7026 53.6315 96.5877 53.5839 96.468 53.5839Z" fill="#3F3D56"/>
<path d="M150.998 63.9628C150.598 63.4516 150.167 62.9655 149.708 62.5072C148.235 61.0346 146.487 59.8664 144.563 59.0695C142.639 58.2725 140.576 57.8623 138.494 57.8623C136.411 57.8623 134.349 58.2725 132.425 59.0695C130.501 59.8664 128.753 61.0346 127.28 62.5072C127.253 62.5348 127.227 62.5639 127.2 62.5917L127.198 62.5897V72.1739C127.159 72.1733 127.12 72.1709 127.081 72.1709C126.73 72.1717 126.379 72.1949 126.03 72.2405C125.903 71.7279 125.658 71.2522 125.314 70.8514C124.97 70.4507 124.536 70.136 124.049 69.9327C123.561 69.7294 123.033 69.643 122.506 69.6804C121.979 69.7179 121.469 69.8782 121.015 70.1485C120.561 70.4188 120.177 70.7915 119.893 71.2369C119.609 71.6823 119.433 72.188 119.38 72.7135C119.326 73.239 119.397 73.7697 119.585 74.2631C119.774 74.7565 120.075 75.199 120.465 75.555C120.27 75.8243 120.091 76.1053 119.93 76.3964C119.468 76.3176 118.995 76.3355 118.541 76.4491C118.086 76.5627 117.66 76.7695 117.289 77.0563C116.919 77.3432 116.612 77.7038 116.388 78.1155C116.164 78.5271 116.028 78.9807 115.989 79.4477C115.949 79.9146 116.007 80.3846 116.159 80.828C116.31 81.2714 116.552 81.6784 116.87 82.0234C117.187 82.3683 117.572 82.6436 118.001 82.8319C118.43 83.0201 118.894 83.1172 119.363 83.117C119.377 83.117 119.391 83.115 119.405 83.1149C119.64 83.7607 119.955 84.3743 120.344 84.9409C120.074 85.32 119.885 85.7508 119.789 86.2062C119.693 86.6616 119.693 87.1319 119.787 87.5877C119.881 88.0434 120.068 88.4748 120.337 88.8549C120.605 89.235 120.949 89.5557 121.347 89.7968C121.745 90.0379 122.189 90.1943 122.65 90.2562C123.111 90.3181 123.581 90.2842 124.028 90.1566C124.476 90.029 124.892 89.8105 125.251 89.5147C125.611 89.2188 125.905 88.8521 126.116 88.4373C126.436 88.4758 126.759 88.4954 127.081 88.496C127.12 88.496 127.159 88.4936 127.198 88.4931V105.115C127.198 105.293 127.25 105.466 127.349 105.614C127.447 105.761 127.587 105.876 127.751 105.944C127.915 106.012 128.095 106.029 128.269 105.995C128.443 105.96 128.603 105.875 128.728 105.749L148.285 86.1921C151.593 83.6041 153.737 79.8081 154.246 75.6393C154.754 71.4705 153.586 67.2703 150.998 63.9628Z" fill="#00B0FF"/>
<path d="M127.452 83.7763C129.322 83.7763 130.838 82.2604 130.838 80.3904C130.838 78.5203 129.322 77.0044 127.452 77.0044C125.582 77.0044 124.066 78.5203 124.066 80.3904C124.066 82.2604 125.582 83.7763 127.452 83.7763Z" fill="#3F3D56"/>
<path d="M128.917 79.9389H127.901V78.9231C127.901 78.8034 127.854 78.6886 127.769 78.6039C127.685 78.5193 127.57 78.4717 127.45 78.4717C127.33 78.4717 127.215 78.5193 127.131 78.6039C127.046 78.6886 126.998 78.8034 126.998 78.9231V79.9389H125.983C125.863 79.9389 125.748 79.9865 125.663 80.0712C125.579 80.1558 125.531 80.2707 125.531 80.3904C125.531 80.5101 125.579 80.625 125.663 80.7096C125.748 80.7943 125.863 80.8418 125.983 80.8418H126.998V81.8576C126.998 81.9774 127.046 82.0922 127.131 82.1769C127.215 82.2615 127.33 82.3091 127.45 82.3091C127.57 82.3091 127.685 82.2615 127.769 82.1769C127.854 82.0922 127.901 81.9774 127.901 81.8576V80.8418H128.917C129.037 80.8418 129.152 80.7943 129.236 80.7096C129.321 80.625 129.369 80.5101 129.369 80.3904C129.369 80.2707 129.321 80.1558 129.236 80.0712C129.152 79.9865 129.037 79.9389 128.917 79.9389Z" fill="#00B0FF"/>
</g>
<defs>
<clipPath id="clip0_636_3">
<rect width="162" height="122.409" fill="white" transform="translate(14)"/>
</clipPath>
</defs>
</svg>
