<svg width="190" height="124" viewBox="0 0 190 124" fill="none" xmlns="http://www.w3.org/2000/svg">
<g clip-path="url(#clip0_636_6)">
<g clip-path="url(#clip1_636_6)">
<path d="M69.0742 124.279C69.0742 124.436 69.1999 124.561 69.3563 124.561H130.72C130.876 124.561 131.002 124.436 131.002 124.279C131.002 124.123 130.876 123.997 130.72 123.997H69.3563C69.1999 123.997 69.0742 124.123 69.0742 124.279Z" fill="#484565"/>
<path d="M101.341 0.0778693C101.341 0.0778693 96.147 -1.18098 93.0034 6.42425C90.3838 12.7635 88.5251 16.1489 90.6517 18.4485C91.4127 19.2711 92.4984 19.7144 93.6174 19.7524L105.589 20.1459C105.589 20.1459 109.985 8.61953 107.313 4.45183C104.641 0.28175 101.341 0.0778693 101.341 0.0778693Z" fill="#2F2E41"/>
<path d="M103.821 19.1882L98.0625 21.0824V12.792H103.288L103.821 19.1882Z" fill="#F6A6A9"/>
<path d="M99.4016 119.647H94.0059L90.8789 90.8237H99.2167L99.4016 119.647Z" fill="#F6A6A9"/>
<path d="M88.7557 124.279C88.1891 124.279 87.6841 124.265 87.3024 124.229C85.8681 124.099 84.5026 123.042 83.8151 122.423C83.5069 122.145 83.4073 121.702 83.5685 121.32C83.6847 121.045 83.9147 120.842 84.1992 120.761L87.9852 119.68L94.1158 115.543L94.1846 115.666C94.2107 115.711 94.8128 116.797 95.0143 117.53C95.0902 117.809 95.0712 118.042 94.9551 118.219C94.8744 118.345 94.763 118.416 94.6706 118.457C94.782 118.573 95.1305 118.807 96.1997 118.978C97.7643 119.227 98.0915 117.605 98.1057 117.537L98.1152 117.482L98.1626 117.451C98.907 116.973 99.3646 116.754 99.5234 116.799C99.623 116.828 99.7866 116.878 100.23 121.292C100.275 121.429 100.585 122.446 100.374 123.416C100.145 124.473 95.5288 124.108 94.6042 124.025C94.5781 124.028 91.1216 124.274 88.7533 124.274V124.279H88.7557Z" fill="#2F2E41"/>
<path d="M111.589 119.647H106.196L103.066 90.8237H111.404L111.589 119.647Z" fill="#F6A6A9"/>
<path d="M100.943 124.279C100.377 124.279 99.8716 124.265 99.4899 124.229C98.0556 124.099 96.6901 123.042 96.0026 122.423C95.6944 122.145 95.5948 121.702 95.756 121.32C95.8722 121.045 96.1022 120.842 96.3867 120.761L100.173 119.68L106.303 115.543L106.372 115.666C106.398 115.711 107 116.797 107.202 117.53C107.278 117.809 107.259 118.042 107.143 118.219C107.062 118.345 106.951 118.416 106.858 118.457C106.969 118.573 107.318 118.807 108.387 118.978C109.952 119.227 110.279 117.605 110.293 117.537L110.303 117.482L110.35 117.451C111.095 116.973 111.552 116.754 111.711 116.799C111.81 116.828 111.974 116.878 112.417 121.292C112.462 121.429 112.773 122.446 112.562 123.416C112.332 124.473 107.716 124.108 106.792 124.025C106.766 124.028 103.309 124.274 100.941 124.274V124.279H100.943Z" fill="#2F2E41"/>
<path d="M113.14 48.8527H86.9297L96.3509 17.8462H106.801L113.14 48.8527Z" fill="#DDDEDF"/>
<path d="M86.2171 66.2514C85.9042 68.1504 84.6382 69.5135 83.3888 69.2931C82.1395 69.0726 81.3785 67.3562 81.6914 65.4573C81.8052 64.6963 82.1063 63.9779 82.5686 63.3592L83.9957 55.3296L87.8813 56.1427L86.0606 63.9708C86.3001 64.7105 86.3546 65.4928 86.2195 66.2514L86.2171 66.2514Z" fill="#F6A6A9"/>
<path d="M98.0015 17.8509C98.0015 17.8509 91.4915 17.6802 90.8064 19.3919C90.1212 21.1059 82.0703 61.8773 82.0703 61.8773H87.3807L98.0015 17.8509Z" fill="#DDDEDF"/>
<path d="M99.384 14.75C102.554 14.75 105.123 12.1803 105.123 9.01048C105.123 5.84065 102.554 3.271 99.384 3.271C96.2142 3.271 93.6445 5.84065 93.6445 9.01048C93.6445 12.1803 96.2142 14.75 99.384 14.75Z" fill="#F6A6A9"/>
<path d="M100.286 1.9721C100.286 1.9721 92.9175 12.9319 94.1573 19.769L89.8711 17.083C89.8711 17.083 92.889 3.2428 97.3862 2.16887L100.286 1.96973L100.286 1.9721Z" fill="#2F2E41"/>
<path d="M107.693 48.853H90.4931L81.0814 87.479C80.9083 89.11 81.9419 90.632 83.5279 91.0564C88.6913 92.4385 101.081 94.3991 119.835 88.9417C121.639 88.4178 122.664 86.5141 122.097 84.7218L107.693 48.8554V48.853Z" fill="#2F2E41"/>
<path d="M84.4962 23.3461L84.3777 23.2276L84.2591 23.3461C78.4912 17.5829 69.1435 17.5901 63.3803 23.358C57.6171 29.1283 57.5009 38.5922 63.2689 44.3554L84.3919 65.457L105.501 44.3293C111.264 38.559 111.143 29.0951 105.377 23.3319C99.6095 17.5687 90.2618 17.5758 84.4986 23.3438C84.4986 23.3438 84.4962 23.3461 84.4962 23.3461Z" fill="#00B0FF"/>
<path d="M100.094 20.7483L104.859 18.3041C107.038 17.4981 109.468 17.7683 111.416 19.0366C117.343 22.8914 129.026 31.3904 124.005 35.5913C117.388 41.1293 108.443 31.3074 108.443 31.3074L100.094 20.7483Z" fill="#DDDEDF"/>
<path d="M99.9904 24.9251C98.3333 23.9484 97.5201 22.2747 98.1768 21.1865C98.8335 20.1008 100.709 20.013 102.368 20.9898C103.037 21.3715 103.599 21.912 104.006 22.5663L110.976 26.8004L108.814 30.1288L102.171 25.6008C101.394 25.5558 100.645 25.3234 99.988 24.9228H99.9904L99.9904 24.9251Z" fill="#F6A6A9"/>
<path d="M104.727 28.7636L106.708 24.0293L116.393 27.2345L112.062 34.4438L104.727 28.7636Z" fill="#DDDEDF"/>
</g>
</g>
<defs>
<clipPath id="clip0_636_6">
<rect width="190" height="124" fill="white"/>
</clipPath>
<clipPath id="clip1_636_6">
<rect width="72" height="124.561" fill="white" transform="translate(59)"/>
</clipPath>
</defs>
</svg>
