<svg width="207" height="74" viewBox="0 0 207 74" fill="none" xmlns="http://www.w3.org/2000/svg">
<path d="M89.778 28.344C87.0167 28.344 84.762 27.9133 83.014 27.052C81.2913 26.1653 80.0247 25.038 79.214 23.67C78.4033 22.302 77.998 20.8707 77.998 19.376C77.998 17.932 78.3653 16.5133 79.1 15.12C79.86 13.7267 80.9747 12.4727 82.444 11.358C83.9133 10.2433 85.712 9.35666 87.84 8.698C89.968 8.014 92.4 7.672 95.136 7.672C96.7067 7.672 98.252 7.9 99.772 8.356C101.317 8.78666 102.812 9.344 104.256 10.028C105.7 10.712 107.068 11.4467 108.36 12.232C109.677 12.992 110.893 13.714 112.008 14.398C113.123 15.082 114.111 15.652 114.972 16.108C115.859 16.5387 116.593 16.754 117.176 16.754V17.096C116.467 17.1213 115.555 16.8427 114.44 16.26C113.351 15.652 112.097 14.9173 110.678 14.056C109.285 13.1693 107.765 12.2953 106.118 11.434C104.471 10.5473 102.749 9.81267 100.95 9.23C99.1513 8.622 97.3273 8.318 95.478 8.318C93.0967 8.318 90.8673 8.60933 88.79 9.192C86.738 9.77466 84.9267 10.5853 83.356 11.624C81.8107 12.6627 80.6073 13.8787 79.746 15.272C78.8847 16.64 78.454 18.122 78.454 19.718C78.454 21.39 78.9227 22.8593 79.86 24.126C80.8227 25.3673 82.1527 26.3427 83.85 27.052C85.5727 27.736 87.5613 28.078 89.816 28.078C91.6907 28.078 93.4007 27.7487 94.946 27.09C96.4913 26.406 97.72 25.494 98.632 24.354C99.544 23.214 100 21.96 100 20.592C100 19.6293 99.7593 18.7807 99.278 18.046C98.822 17.286 98.1507 16.7413 97.264 16.412L97.454 16.146C98.3913 16.5513 99.1007 17.134 99.582 17.894C100.089 18.654 100.342 19.5533 100.342 20.592C100.342 22.036 99.8733 23.3533 98.936 24.544C97.9987 25.7093 96.732 26.634 95.136 27.318C93.54 28.002 91.754 28.344 89.778 28.344ZM137.126 17.286C135.327 17.438 133.427 17.9193 131.426 18.73C129.45 19.5407 127.449 20.592 125.422 21.884C123.395 23.1507 121.419 24.5567 119.494 26.102C117.569 27.6473 115.77 29.2307 114.098 30.852C112.426 32.4733 110.957 34.044 109.69 35.564C108.423 37.0587 107.423 38.4013 106.688 39.592C105.979 40.7827 105.624 41.72 105.624 42.404C105.624 42.48 105.649 42.518 105.7 42.518C105.801 42.518 105.979 42.3533 106.232 42.024C106.485 41.6693 106.751 41.264 107.03 40.808C107.334 40.352 107.6 39.9467 107.828 39.592C108.664 38.3253 109.297 36.9573 109.728 35.488C110.159 33.9933 110.526 32.448 110.83 30.852C111.159 29.2307 111.552 27.6093 112.008 25.988C112.464 24.3667 113.123 22.7833 113.984 21.238C114.871 19.6927 116.087 18.2487 117.632 16.906L118.012 17.02C117.201 17.5773 116.479 18.4387 115.846 19.604C115.238 20.744 114.668 22.0993 114.136 23.67C113.604 25.2407 113.072 26.9 112.54 28.648C112.033 30.3707 111.489 32.0933 110.906 33.816C110.323 35.5387 109.665 37.1473 108.93 38.642C108.195 40.1367 107.334 41.416 106.346 42.48C105.738 43.088 105.333 43.392 105.13 43.392C104.978 43.392 104.902 43.316 104.902 43.164C104.902 42.404 105.257 41.3907 105.966 40.124C106.701 38.832 107.714 37.4007 109.006 35.83C110.298 34.234 111.793 32.6 113.49 30.928C115.187 29.256 117.024 27.622 119 26.026C120.976 24.43 123.003 22.986 125.08 21.694C127.157 20.3767 129.222 19.3 131.274 18.464C133.326 17.628 135.277 17.134 137.126 16.982C139.989 16.678 142.104 16.412 143.472 16.184C144.84 15.9307 145.524 15.5633 145.524 15.082C145.524 14.9553 145.397 14.8287 145.144 14.702C144.891 14.5753 144.523 14.512 144.042 14.512C142.294 14.512 140.508 14.9427 138.684 15.804C136.885 16.64 135.099 17.7293 133.326 19.072C131.553 20.4147 129.855 21.8587 128.234 23.404C126.613 24.9493 125.093 26.4567 123.674 27.926C122.281 29.3953 120.938 30.966 119.646 32.638C118.354 34.2847 117.189 35.9567 116.15 37.654C115.111 39.3513 114.288 41.0107 113.68 42.632C113.072 44.2533 112.768 45.7733 112.768 47.192C112.768 48.5093 113.059 49.5607 113.642 50.346C114.225 51.1313 115.01 51.524 115.998 51.524C116.986 51.524 117.885 51.1947 118.696 50.536L118.772 50.764C118.012 51.4733 117.075 51.828 115.96 51.828C114.693 51.828 113.655 51.334 112.844 50.346C112.033 49.358 111.628 48.0913 111.628 46.546C111.628 45.2033 111.945 43.772 112.578 42.252C113.211 40.7067 114.022 39.1613 115.01 37.616C116.023 36.0453 117.113 34.538 118.278 33.094C119.469 31.6247 120.621 30.2947 121.736 29.104C122.851 27.888 123.813 26.8873 124.624 26.102C125.916 24.886 127.335 23.594 128.88 22.226C130.425 20.858 132.034 19.566 133.706 18.35C135.403 17.134 137.101 16.146 138.798 15.386C140.521 14.6007 142.193 14.208 143.814 14.208C144.599 14.208 145.245 14.284 145.752 14.436C146.259 14.588 146.512 14.7907 146.512 15.044C146.512 15.424 146.221 15.7407 145.638 15.994C145.055 16.2473 144.08 16.4753 142.712 16.678C141.344 16.8807 139.482 17.0833 137.126 17.286ZM111.78 20.82C112.945 19.756 113.933 18.92 114.744 18.312C115.555 17.6787 116.34 17.1593 117.1 16.754H119.038C118.405 16.906 117.67 17.21 116.834 17.666C116.023 18.0967 115.2 18.616 114.364 19.224C113.528 19.8067 112.768 20.44 112.084 21.124C110.741 22.5427 109.5 24.126 108.36 25.874C107.245 27.5967 106.156 29.3827 105.092 31.232C104.028 33.056 102.901 34.8547 101.71 36.628C100.545 38.376 99.2147 39.972 97.72 41.416C95.8707 43.2147 93.6793 44.57 91.146 45.482C88.638 46.394 85.864 46.85 82.824 46.85C80.3667 46.85 78.1247 46.4573 76.098 45.672C74.0967 44.912 72.488 43.7467 71.272 42.176C70.0813 40.6053 69.486 38.6293 69.486 36.248C69.486 34.6013 69.866 33.0813 70.626 31.688C71.4113 30.2947 72.5133 29.0787 73.932 28.04C75.3507 26.976 77.01 26.1527 78.91 25.57C80.8353 24.9873 82.9253 24.696 85.18 24.696C88.8027 24.696 91.9187 25.2787 94.528 26.444C97.1627 27.584 99.1893 29.2053 100.608 31.308C102.052 33.4107 102.774 35.906 102.774 38.794C102.774 40.998 102.267 43.012 101.254 44.836C100.241 46.66 98.7967 48.2433 96.922 49.586C95.0727 50.9287 92.894 51.9673 90.386 52.702C87.878 53.4367 85.104 53.804 82.064 53.804C79.0747 53.804 76.3007 53.348 73.742 52.436C71.2087 51.5493 68.9793 50.2953 67.054 48.674C65.154 47.078 63.672 45.216 62.608 43.088C61.544 40.96 61.012 38.642 61.012 36.134C61.012 33.6767 61.582 31.384 62.722 29.256C63.862 27.128 65.4453 25.2533 67.472 23.632C69.4987 22.0107 71.8293 20.744 74.464 19.832C77.124 18.92 79.9867 18.464 83.052 18.464C86.0413 18.464 88.6507 18.9073 90.88 19.794C93.1347 20.6553 94.8827 21.8713 96.124 23.442C97.3907 24.9873 98.024 26.7987 98.024 28.876C98.024 30.472 97.644 31.9667 96.884 33.36C96.124 34.728 95.0727 35.9313 93.73 36.97C92.3873 37.9833 90.8167 38.7813 89.018 39.364C87.2193 39.9467 85.2687 40.238 83.166 40.238C80.8607 40.238 79.062 39.8833 77.77 39.174C76.478 38.4393 75.832 37.4387 75.832 36.172C75.832 35.108 76.1867 34.1833 76.896 33.398C77.6053 32.5873 78.606 31.9667 79.898 31.536C81.19 31.08 82.6847 30.852 84.382 30.852C86.5353 30.852 88.2833 31.3587 89.626 32.372L89.398 32.638C88.1567 31.65 86.4847 31.156 84.382 31.156C82.7607 31.156 81.3293 31.3713 80.088 31.802C78.8467 32.2327 77.8713 32.828 77.162 33.588C76.478 34.3227 76.136 35.184 76.136 36.172C76.136 37.3373 76.7567 38.262 77.998 38.946C79.2647 39.6047 80.9873 39.934 83.166 39.934C85.1927 39.934 87.0927 39.6553 88.866 39.098C90.6393 38.5153 92.1847 37.73 93.502 36.742C94.8193 35.7287 95.8453 34.5507 96.58 33.208C97.34 31.8653 97.72 30.4213 97.72 28.876C97.72 26.8747 97.0993 25.114 95.858 23.594C94.642 22.074 92.932 20.896 90.728 20.06C88.524 19.1987 85.9653 18.768 83.052 18.768C80.0627 18.768 77.238 19.224 74.578 20.136C71.9433 21.0227 69.638 22.264 67.662 23.86C65.686 25.456 64.128 27.3053 62.988 29.408C61.8733 31.4853 61.316 33.7273 61.316 36.134C61.316 38.566 61.8353 40.8333 62.874 42.936C63.938 45.0387 65.4073 46.8753 67.282 48.446C69.182 50.042 71.386 51.2833 73.894 52.17C76.4273 53.0567 79.1507 53.5 82.064 53.5C85.028 53.5 87.7513 53.1327 90.234 52.398C92.742 51.6887 94.908 50.6753 96.732 49.358C98.556 48.0407 99.962 46.4827 100.95 44.684C101.963 42.9107 102.47 40.9473 102.47 38.794C102.47 35.9567 101.761 33.512 100.342 31.46C98.9487 29.408 96.96 27.8247 94.376 26.71C91.792 25.57 88.7267 25 85.18 25C82.9507 25 80.8987 25.2913 79.024 25.874C77.1493 26.4313 75.5153 27.2293 74.122 28.268C72.754 29.2813 71.69 30.472 70.93 31.84C70.17 33.1827 69.79 34.652 69.79 36.248C69.79 38.1733 70.322 39.7947 71.386 41.112C72.45 42.404 73.9067 43.3667 75.756 44C77.6307 44.6587 79.7587 44.988 82.14 44.988C84.496 44.988 86.7 44.5447 88.752 43.658C90.8293 42.7713 92.7673 41.5933 94.566 40.124C96.3647 38.6547 98.0493 37.0333 99.62 35.26C101.216 33.4613 102.711 31.6627 104.104 29.864C105.523 28.04 106.865 26.3427 108.132 24.772C109.399 23.176 110.615 21.8587 111.78 20.82ZM121.531 44.114C122.291 44.114 123.178 43.8733 124.191 43.392C125.205 42.8853 126.256 42.2267 127.345 41.416C128.435 40.58 129.435 39.6427 130.347 38.604L130.765 38.148H131.107L130.803 38.49C129.841 39.5793 128.789 40.5673 127.649 41.454C126.509 42.3407 125.395 43.0373 124.305 43.544C123.241 44.0507 122.317 44.304 121.531 44.304C120.949 44.304 120.48 44.1013 120.125 43.696C119.745 43.2653 119.555 42.67 119.555 41.91C119.555 41.1753 119.783 40.4153 120.239 39.63C120.67 38.8193 121.24 38.034 121.949 37.274C122.684 36.4887 123.507 35.792 124.419 35.184C125.331 34.5507 126.256 34.0567 127.193 33.702C128.156 33.322 129.081 33.132 129.967 33.132C130.347 33.132 130.651 33.208 130.879 33.36C131.133 33.512 131.259 33.7147 131.259 33.968C131.259 34.4493 130.981 34.956 130.423 35.488C129.891 36.02 129.195 36.5267 128.333 37.008C127.497 37.464 126.585 37.844 125.597 38.148C124.635 38.4267 123.723 38.566 122.861 38.566L123.165 38.262C123.976 38.2113 124.825 38.0467 125.711 37.768C126.623 37.4893 127.459 37.1347 128.219 36.704C128.979 36.2733 129.6 35.8173 130.081 35.336C130.563 34.8547 130.803 34.3987 130.803 33.968C130.803 33.6133 130.563 33.436 130.081 33.436C129.524 33.436 128.827 33.6767 127.991 34.158C127.181 34.6393 126.332 35.26 125.445 36.02C124.584 36.78 123.773 37.6033 123.013 38.49C122.253 39.3767 121.645 40.238 121.189 41.074C120.708 41.8847 120.467 42.5687 120.467 43.126C120.467 43.7847 120.822 44.114 121.531 44.114ZM131.106 38.148H130.764L131.182 37.692C132.474 36.2733 133.702 35.1333 134.868 34.272C136.058 33.4107 136.996 32.98 137.68 32.98C137.958 32.98 138.186 33.0813 138.364 33.284C138.541 33.4613 138.63 33.6893 138.63 33.968C138.63 34.6267 138.364 35.3613 137.832 36.172C137.3 36.9827 136.375 38.0593 135.058 39.402H135.514L134.602 40.618L131.562 44H128.598C129.687 43.2147 130.802 42.3153 131.942 41.302C133.082 40.2887 134.12 39.2753 135.058 38.262C136.02 37.2487 136.793 36.3367 137.376 35.526C137.958 34.7153 138.25 34.1453 138.25 33.816C138.25 33.4107 138.047 33.208 137.642 33.208C137.262 33.208 136.73 33.4107 136.046 33.816C135.362 34.2213 134.614 34.766 133.804 35.45C133.018 36.134 132.258 36.8813 131.524 37.692L131.106 38.148ZM144.33 44.304C144 44.304 143.709 44.1647 143.456 43.886C143.202 43.582 143.076 43.2273 143.076 42.822C143.076 42.1887 143.316 41.53 143.798 40.846C144.279 40.162 144.862 39.4907 145.546 38.832C146.255 38.148 146.964 37.502 147.674 36.894C148.383 36.2607 148.978 35.6907 149.46 35.184C149.941 34.6773 150.182 34.2467 150.182 33.892C150.182 33.5373 149.966 33.36 149.536 33.36C149.105 33.36 148.535 33.5753 147.826 34.006C147.116 34.4367 146.318 35.0193 145.432 35.754C144.57 36.4633 143.696 37.2487 142.81 38.11C141.948 38.946 141.138 39.782 140.378 40.618H140.036C140.796 39.7567 141.619 38.8953 142.506 38.034C143.418 37.1473 144.317 36.3367 145.204 35.602C146.116 34.8673 146.952 34.272 147.712 33.816C148.472 33.36 149.105 33.132 149.612 33.132C149.916 33.132 150.207 33.246 150.486 33.474C150.79 33.702 150.942 34.0567 150.942 34.538C150.942 35.1713 150.688 35.8173 150.182 36.476C149.7 37.1347 149.092 37.7933 148.358 38.452C147.648 39.0853 146.926 39.706 146.192 40.314C145.482 40.922 144.874 41.492 144.368 42.024C143.886 42.556 143.646 43.0373 143.646 43.468C143.646 43.8987 143.886 44.114 144.368 44.114C144.824 44.114 145.47 43.8607 146.306 43.354C147.167 42.822 148.079 42.138 149.042 41.302C150.03 40.466 150.967 39.5667 151.854 38.604L152.234 38.148H152.576L152.272 38.49C151.334 39.5793 150.346 40.5673 149.308 41.454C148.294 42.3153 147.344 43.012 146.458 43.544C145.571 44.0507 144.862 44.304 144.33 44.304ZM134.602 40.618H134.222L136.958 37.73C138.25 36.3113 139.428 35.1967 140.492 34.386C141.581 33.5753 142.468 33.17 143.152 33.17C143.405 33.17 143.62 33.2587 143.798 33.436C144 33.6133 144.102 33.854 144.102 34.158C144.102 34.7913 143.861 35.5007 143.38 36.286C142.898 37.0713 142.05 38.11 140.834 39.402H141.29L140.378 40.618L137.376 44H134.716C135.754 43.2147 136.793 42.328 137.832 41.34C138.896 40.3267 139.871 39.326 140.758 38.338C141.644 37.35 142.366 36.4633 142.924 35.678C143.481 34.8927 143.76 34.3227 143.76 33.968C143.76 33.588 143.544 33.398 143.114 33.398C142.759 33.398 142.265 33.6007 141.632 34.006C140.998 34.386 140.302 34.9053 139.542 35.564C138.807 36.1973 138.072 36.9193 137.338 37.73L134.602 40.618ZM151.452 44.304C151.097 44.304 150.819 44.152 150.616 43.848C150.413 43.5187 150.312 43.0627 150.312 42.48C150.312 41.6947 150.54 40.8713 150.996 40.01C151.452 39.1233 152.073 38.2747 152.858 37.464C153.643 36.628 154.517 35.8807 155.48 35.222C156.443 34.5633 157.431 34.044 158.444 33.664C159.483 33.2587 160.471 33.056 161.408 33.056C162.193 33.056 162.586 33.3473 162.586 33.93C162.586 34.4873 162.219 35.1967 161.484 36.058C160.775 36.9193 159.888 37.92 158.824 39.06C157.963 39.9467 157.051 40.7953 156.088 41.606C155.151 42.3913 154.277 43.0373 153.466 43.544C152.655 44.0507 151.984 44.304 151.452 44.304ZM151.49 44.076C151.921 44.076 152.503 43.8607 153.238 43.43C153.998 42.974 154.834 42.3533 155.746 41.568C156.683 40.7827 157.646 39.8833 158.634 38.87C159.723 37.7553 160.597 36.7927 161.256 35.982C161.94 35.146 162.282 34.4747 162.282 33.968C162.282 33.588 162.029 33.398 161.522 33.398C161.066 33.398 160.483 33.588 159.774 33.968C159.065 34.3227 158.305 34.804 157.494 35.412C156.709 36.02 155.923 36.704 155.138 37.464C154.353 38.1987 153.631 38.946 152.972 39.706C152.339 40.4407 151.832 41.1373 151.452 41.796C151.072 42.4547 150.882 43.012 150.882 43.468C150.882 43.8733 151.085 44.076 151.49 44.076ZM162.738 38.49C161.978 39.3513 161.243 40.0227 160.534 40.504C159.85 40.96 159.267 41.188 158.786 41.188C157.95 41.188 157.532 40.7827 157.532 39.972C157.532 39.4907 157.646 39.022 157.874 38.566C158.127 38.0847 158.558 37.502 159.166 36.818H160.838L158.71 39.174C158.355 39.5033 158.178 39.896 158.178 40.352C158.178 40.7827 158.393 40.998 158.824 40.998C159.229 40.998 159.736 40.7827 160.344 40.352C160.952 39.9213 161.598 39.3387 162.282 38.604L162.7 38.148H163.042L162.738 38.49ZM163.057 38.148H162.715L163.133 37.692C165.261 35.3867 166.971 33.4867 168.263 31.992C169.555 30.472 170.416 29.4207 170.847 28.838H172.329C171.417 29.522 170.264 30.548 168.871 31.916C167.503 33.284 165.717 35.2093 163.513 37.692L163.057 38.148ZM163.969 44.114C164.45 44.114 165.109 43.8607 165.945 43.354C166.806 42.822 167.731 42.138 168.719 41.302C169.707 40.466 170.644 39.5667 171.531 38.604L171.949 38.148H172.291L171.987 38.49C171.024 39.5793 170.024 40.5673 168.985 41.454C167.946 42.3153 166.984 43.012 166.097 43.544C165.21 44.0507 164.488 44.304 163.931 44.304C163.627 44.304 163.323 44.2027 163.019 44C162.715 43.8227 162.563 43.506 162.563 43.05C162.563 42.4673 162.791 41.8467 163.247 41.188C163.728 40.5293 164.311 39.858 164.995 39.174C165.679 38.4647 166.363 37.7933 167.047 37.16C167.756 36.5013 168.339 35.906 168.795 35.374C169.251 34.842 169.479 34.3733 169.479 33.968C169.479 33.5627 169.226 33.36 168.719 33.36C168.491 33.36 168.225 33.398 167.921 33.474C167.617 33.55 167.288 33.664 166.933 33.816L167.199 33.436C167.503 33.3093 167.794 33.208 168.073 33.132C168.377 33.0307 168.681 32.98 168.985 32.98C169.568 32.98 170.036 33.094 170.391 33.322C170.746 33.55 170.923 33.93 170.923 34.462C170.923 35.1207 170.657 35.7793 170.125 36.438C169.618 37.0713 168.985 37.7047 168.225 38.338C167.465 38.946 166.692 39.5413 165.907 40.124C165.147 40.7067 164.501 41.2767 163.969 41.834C163.462 42.366 163.209 42.8853 163.209 43.392C163.209 43.8733 163.462 44.114 163.969 44.114ZM154.589 64.064C152.968 64.064 151.726 63.76 150.865 63.152C149.978 62.5693 149.535 61.708 149.535 60.568C149.535 59.8587 149.776 59.238 150.257 58.706C150.713 58.174 151.296 57.832 152.005 57.68V57.946C151.372 58.098 150.852 58.402 150.447 58.858C150.042 59.3393 149.839 59.9093 149.839 60.568C149.839 61.5813 150.232 62.3667 151.017 62.924C151.802 63.5067 152.854 63.798 154.171 63.798C155.868 63.798 157.616 63.3167 159.415 62.354C161.214 61.4167 163.038 60.1247 164.887 58.478C166.711 56.8567 168.535 54.9947 170.359 52.892C172.183 50.7893 173.969 48.5727 175.717 46.242C177.49 43.9113 179.2 41.5933 180.847 39.288L180.923 39.782H180.049L183.811 35.906L185.787 33.512H188.295C187.51 34.0693 186.661 34.728 185.749 35.488C184.862 36.248 183.988 37.0333 183.127 37.844C182.291 38.6293 181.531 39.402 180.847 40.162C179.378 42.5433 177.858 44.8867 176.287 47.192C174.742 49.4973 173.133 51.6633 171.461 53.69C169.789 55.742 168.054 57.5407 166.255 59.086C164.431 60.6567 162.556 61.8727 160.631 62.734C158.68 63.6207 156.666 64.064 154.589 64.064ZM173.437 44.304C172.677 44.304 172.297 43.886 172.297 43.05C172.297 42.3153 172.525 41.6187 172.981 40.96C173.437 40.3013 173.994 39.668 174.653 39.06C175.337 38.4267 176.008 37.8313 176.667 37.274C177.351 36.6913 177.921 36.1467 178.377 35.64C178.833 35.108 179.061 34.5887 179.061 34.082C179.061 33.7273 178.884 33.55 178.529 33.55C178.174 33.55 177.668 33.74 177.009 34.12C176.35 34.5 175.641 35.0067 174.881 35.64C174.121 36.2733 173.399 36.97 172.715 37.73L172.297 38.148H171.955L172.373 37.73C173.564 36.3873 174.716 35.3233 175.831 34.538C176.946 33.7527 177.858 33.36 178.567 33.36C178.846 33.36 179.137 33.4867 179.441 33.74C179.745 33.968 179.897 34.3607 179.897 34.918C179.897 35.5767 179.656 36.2353 179.175 36.894C178.694 37.5273 178.098 38.148 177.389 38.756C176.705 39.3387 175.996 39.9087 175.261 40.466C174.552 40.998 173.956 41.5173 173.475 42.024C172.994 42.5307 172.753 43.012 172.753 43.468C172.753 43.696 172.829 43.8607 172.981 43.962C173.133 44.0633 173.298 44.114 173.475 44.114C173.906 44.114 174.488 43.9113 175.223 43.506C175.958 43.1007 176.756 42.5687 177.617 41.91C178.504 41.226 179.314 40.5167 180.049 39.782H180.353C179.593 40.5927 178.757 41.34 177.845 42.024C176.958 42.708 176.11 43.2653 175.299 43.696C174.514 44.1013 173.893 44.304 173.437 44.304Z" fill="#1C5182"/>
<path d="M62.708 62V57.8H63.146V61.28L65.834 57.8H66.236V62H65.798V58.526L63.11 62H62.708ZM68.3973 62.036C68.6573 62.036 68.8913 61.996 69.0993 61.916C69.3113 61.836 69.4793 61.726 69.6033 61.586C69.7273 61.442 69.7893 61.276 69.7893 61.088C69.7893 60.848 69.6873 60.658 69.4833 60.518C69.2833 60.378 69.0033 60.308 68.6433 60.308L68.6253 60.422C68.8293 60.422 69.0113 60.39 69.1713 60.326C69.3313 60.262 69.4593 60.172 69.5553 60.056C69.6513 59.94 69.6993 59.804 69.6993 59.648C69.6993 59.472 69.6393 59.322 69.5193 59.198C69.3993 59.07 69.2373 58.972 69.0333 58.904C68.8333 58.836 68.6073 58.806 68.3553 58.814C68.1713 58.814 67.9873 58.84 67.8033 58.892C67.6233 58.94 67.4413 59.012 67.2573 59.108L67.3773 59.438C67.5413 59.354 67.7073 59.292 67.8753 59.252C68.0433 59.208 68.2053 59.184 68.3613 59.18C68.5333 59.18 68.6873 59.2 68.8233 59.24C68.9593 59.28 69.0653 59.34 69.1413 59.42C69.2213 59.5 69.2613 59.596 69.2613 59.708C69.2613 59.812 69.2273 59.902 69.1593 59.978C69.0953 60.054 69.0033 60.112 68.8833 60.152C68.7633 60.192 68.6253 60.212 68.4693 60.212H67.9593V60.524H68.4993C68.7633 60.524 68.9713 60.572 69.1233 60.668C69.2753 60.76 69.3513 60.89 69.3513 61.058C69.3513 61.174 69.3113 61.278 69.2313 61.37C69.1513 61.462 69.0393 61.534 68.8953 61.586C68.7513 61.638 68.5813 61.666 68.3853 61.67C68.1893 61.67 67.9913 61.642 67.7913 61.586C67.5913 61.526 67.4153 61.44 67.2633 61.328L67.1253 61.646C67.2973 61.778 67.4953 61.876 67.7193 61.94C67.9433 62.004 68.1693 62.036 68.3973 62.036ZM70.7564 62V58.85H72.9884V59.222H71.0744L71.1824 59.114V62H70.7564ZM74.7536 62.03C74.4496 62.03 74.1756 61.962 73.9316 61.826C73.6916 61.686 73.5016 61.496 73.3616 61.256C73.2216 61.012 73.1516 60.734 73.1516 60.422C73.1516 60.106 73.2216 59.828 73.3616 59.588C73.5016 59.348 73.6916 59.16 73.9316 59.024C74.1716 58.888 74.4456 58.82 74.7536 58.82C75.0656 58.82 75.3416 58.888 75.5816 59.024C75.8256 59.16 76.0156 59.348 76.1516 59.588C76.2916 59.828 76.3616 60.106 76.3616 60.422C76.3616 60.734 76.2916 61.012 76.1516 61.256C76.0156 61.496 75.8256 61.686 75.5816 61.826C75.3376 61.962 75.0616 62.03 74.7536 62.03ZM74.7536 61.652C74.9816 61.652 75.1836 61.602 75.3596 61.502C75.5356 61.398 75.6736 61.254 75.7736 61.07C75.8776 60.882 75.9296 60.666 75.9296 60.422C75.9296 60.174 75.8776 59.958 75.7736 59.774C75.6736 59.59 75.5356 59.448 75.3596 59.348C75.1836 59.244 74.9836 59.192 74.7596 59.192C74.5356 59.192 74.3356 59.244 74.1596 59.348C73.9836 59.448 73.8436 59.59 73.7396 59.774C73.6356 59.958 73.5836 60.174 73.5836 60.422C73.5836 60.666 73.6356 60.882 73.7396 61.07C73.8436 61.254 73.9836 61.398 74.1596 61.502C74.3356 61.602 74.5336 61.652 74.7536 61.652ZM77.7548 62V59.108L77.8628 59.222H76.5608V58.85H79.3748V59.222H78.0728L78.1808 59.108V62H77.7548ZM81.1403 62.03C80.8363 62.03 80.5623 61.962 80.3183 61.826C80.0783 61.686 79.8883 61.496 79.7483 61.256C79.6083 61.012 79.5383 60.734 79.5383 60.422C79.5383 60.106 79.6083 59.828 79.7483 59.588C79.8883 59.348 80.0783 59.16 80.3183 59.024C80.5583 58.888 80.8323 58.82 81.1403 58.82C81.4523 58.82 81.7283 58.888 81.9683 59.024C82.2123 59.16 82.4023 59.348 82.5383 59.588C82.6783 59.828 82.7483 60.106 82.7483 60.422C82.7483 60.734 82.6783 61.012 82.5383 61.256C82.4023 61.496 82.2123 61.686 81.9683 61.826C81.7243 61.962 81.4483 62.03 81.1403 62.03ZM81.1403 61.652C81.3683 61.652 81.5703 61.602 81.7463 61.502C81.9223 61.398 82.0603 61.254 82.1603 61.07C82.2643 60.882 82.3163 60.666 82.3163 60.422C82.3163 60.174 82.2643 59.958 82.1603 59.774C82.0603 59.59 81.9223 59.448 81.7463 59.348C81.5703 59.244 81.3703 59.192 81.1463 59.192C80.9223 59.192 80.7223 59.244 80.5463 59.348C80.3703 59.448 80.2303 59.59 80.1263 59.774C80.0223 59.958 79.9703 60.174 79.9703 60.422C79.9703 60.666 80.0223 60.882 80.1263 61.07C80.2303 61.254 80.3703 61.398 80.5463 61.502C80.7223 61.602 80.9203 61.652 81.1403 61.652ZM83.6587 62V58.85H85.0507C85.4067 58.85 85.6867 58.918 85.8907 59.054C86.0987 59.19 86.2027 59.39 86.2027 59.654C86.2027 59.91 86.1047 60.108 85.9087 60.248C85.7127 60.384 85.4547 60.452 85.1347 60.452L85.2187 60.326C85.5947 60.326 85.8707 60.396 86.0467 60.536C86.2227 60.676 86.3107 60.878 86.3107 61.142C86.3107 61.414 86.2107 61.626 86.0107 61.778C85.8147 61.926 85.5087 62 85.0927 62H83.6587ZM84.0727 61.664H85.0747C85.3427 61.664 85.5447 61.622 85.6807 61.538C85.8207 61.45 85.8907 61.31 85.8907 61.118C85.8907 60.926 85.8287 60.786 85.7047 60.698C85.5807 60.61 85.3847 60.566 85.1167 60.566H84.0727V61.664ZM84.0727 60.248H85.0207C85.2647 60.248 85.4507 60.202 85.5787 60.11C85.7107 60.018 85.7767 59.884 85.7767 59.708C85.7767 59.532 85.7107 59.4 85.5787 59.312C85.4507 59.224 85.2647 59.18 85.0207 59.18H84.0727V60.248ZM86.7331 61.994L86.7631 61.628C86.7911 61.632 86.8171 61.638 86.8411 61.646C86.8691 61.65 86.8931 61.652 86.9131 61.652C87.0411 61.652 87.1431 61.604 87.2191 61.508C87.2991 61.412 87.3591 61.284 87.3991 61.124C87.4391 60.964 87.4671 60.784 87.4831 60.584C87.4991 60.38 87.5131 60.176 87.5251 59.972L87.5791 58.85H89.8891V62H89.4631V59.096L89.5711 59.222H87.8551L87.9571 59.09L87.9091 60.002C87.8971 60.274 87.8751 60.534 87.8431 60.782C87.8151 61.03 87.7691 61.248 87.7051 61.436C87.6451 61.624 87.5611 61.772 87.4531 61.88C87.3451 61.984 87.2071 62.036 87.0391 62.036C86.9911 62.036 86.9411 62.032 86.8891 62.024C86.8411 62.016 86.7891 62.006 86.7331 61.994ZM92.4501 62.03C92.1221 62.03 91.8341 61.962 91.5861 61.826C91.3381 61.686 91.1441 61.496 91.0041 61.256C90.8641 61.012 90.7941 60.734 90.7941 60.422C90.7941 60.11 90.8601 59.834 90.9921 59.594C91.1281 59.354 91.3121 59.166 91.5441 59.03C91.7801 58.89 92.0441 58.82 92.3361 58.82C92.6321 58.82 92.8941 58.888 93.1221 59.024C93.3541 59.156 93.5361 59.344 93.6681 59.588C93.8001 59.828 93.8661 60.106 93.8661 60.422C93.8661 60.442 93.8641 60.464 93.8601 60.488C93.8601 60.508 93.8601 60.53 93.8601 60.554H91.1181V60.236H93.6321L93.4641 60.362C93.4641 60.134 93.4141 59.932 93.3141 59.756C93.2181 59.576 93.0861 59.436 92.9181 59.336C92.7501 59.236 92.5561 59.186 92.3361 59.186C92.1201 59.186 91.9261 59.236 91.7541 59.336C91.5821 59.436 91.4481 59.576 91.3521 59.756C91.2561 59.936 91.2081 60.142 91.2081 60.374V60.44C91.2081 60.68 91.2601 60.892 91.3641 61.076C91.4721 61.256 91.6201 61.398 91.8081 61.502C92.0001 61.602 92.2181 61.652 92.4621 61.652C92.6541 61.652 92.8321 61.618 92.9961 61.55C93.1641 61.482 93.3081 61.378 93.4281 61.238L93.6681 61.514C93.5281 61.682 93.3521 61.81 93.1401 61.898C92.9321 61.986 92.7021 62.03 92.4501 62.03ZM94.8091 62V58.85H95.2351V60.242H97.2211V58.85H97.6471V62H97.2211V60.608H95.2351V62H94.8091ZM98.858 62V58.85H99.284V61.352L101.39 58.85H101.768V62H101.342V59.492L99.242 62H98.858ZM104.339 62.03C104.011 62.03 103.723 61.962 103.475 61.826C103.227 61.686 103.033 61.496 102.893 61.256C102.753 61.012 102.683 60.734 102.683 60.422C102.683 60.11 102.749 59.834 102.881 59.594C103.017 59.354 103.201 59.166 103.433 59.03C103.669 58.89 103.933 58.82 104.225 58.82C104.521 58.82 104.783 58.888 105.011 59.024C105.243 59.156 105.425 59.344 105.557 59.588C105.689 59.828 105.755 60.106 105.755 60.422C105.755 60.442 105.753 60.464 105.749 60.488C105.749 60.508 105.749 60.53 105.749 60.554H103.007V60.236H105.521L105.353 60.362C105.353 60.134 105.303 59.932 105.203 59.756C105.107 59.576 104.975 59.436 104.807 59.336C104.639 59.236 104.445 59.186 104.225 59.186C104.009 59.186 103.815 59.236 103.643 59.336C103.471 59.436 103.337 59.576 103.241 59.756C103.145 59.936 103.097 60.142 103.097 60.374V60.44C103.097 60.68 103.149 60.892 103.253 61.076C103.361 61.256 103.509 61.398 103.697 61.502C103.889 61.602 104.107 61.652 104.351 61.652C104.543 61.652 104.721 61.618 104.885 61.55C105.053 61.482 105.197 61.378 105.317 61.238L105.557 61.514C105.417 61.682 105.241 61.81 105.029 61.898C104.821 61.986 104.591 62.03 104.339 62.03ZM108.268 62V58.85H111.1V62H110.674V59.108L110.782 59.222H108.586L108.694 59.108V62H108.268ZM114.267 62V61.304L114.249 61.19V60.026C114.249 59.758 114.173 59.552 114.021 59.408C113.873 59.264 113.651 59.192 113.355 59.192C113.151 59.192 112.957 59.226 112.773 59.294C112.589 59.362 112.433 59.452 112.305 59.564L112.113 59.246C112.273 59.11 112.465 59.006 112.689 58.934C112.913 58.858 113.149 58.82 113.397 58.82C113.805 58.82 114.119 58.922 114.339 59.126C114.563 59.326 114.675 59.632 114.675 60.044V62H114.267ZM113.181 62.03C112.945 62.03 112.739 61.992 112.563 61.916C112.391 61.836 112.259 61.728 112.167 61.592C112.075 61.452 112.029 61.292 112.029 61.112C112.029 60.948 112.067 60.8 112.143 60.668C112.223 60.532 112.351 60.424 112.527 60.344C112.707 60.26 112.947 60.218 113.247 60.218H114.333V60.536H113.259C112.955 60.536 112.743 60.59 112.623 60.698C112.507 60.806 112.449 60.94 112.449 61.1C112.449 61.28 112.519 61.424 112.659 61.532C112.799 61.64 112.995 61.694 113.247 61.694C113.487 61.694 113.693 61.64 113.865 61.532C114.041 61.42 114.169 61.26 114.249 61.052L114.345 61.346C114.265 61.554 114.125 61.72 113.925 61.844C113.729 61.968 113.481 62.03 113.181 62.03ZM115.809 62V58.85H116.241L117.669 61.268H117.489L118.941 58.85H119.337V62H118.947V59.336L119.025 59.372L117.669 61.616H117.477L116.109 59.348L116.199 59.33V62H115.809ZM122.583 62V60.866L122.661 60.956H121.593C121.189 60.956 120.873 60.868 120.645 60.692C120.417 60.516 120.303 60.26 120.303 59.924C120.303 59.564 120.425 59.296 120.669 59.12C120.913 58.94 121.239 58.85 121.647 58.85H122.973V62H122.583ZM120.279 62L121.143 60.788H121.587L120.741 62H120.279ZM122.583 60.74V59.096L122.661 59.222H121.659C121.367 59.222 121.139 59.278 120.975 59.39C120.815 59.502 120.735 59.684 120.735 59.936C120.735 60.404 121.033 60.638 121.629 60.638H122.661L122.583 60.74ZM124.788 62V59.108L124.896 59.222H123.594V58.85H126.408V59.222H125.106L125.214 59.108V62H124.788ZM127.024 62V58.85H127.45V60.242H129.436V58.85H129.862V62H129.436V60.608H127.45V62H127.024ZM131.073 62V58.85H131.499V61.352L133.605 58.85H133.983V62H133.557V59.492L131.457 62H131.073ZM137.514 62L136.218 60.44L136.572 60.23L138.018 62H137.514ZM135.204 62V58.85H135.63V62H135.204ZM135.498 60.596V60.23H136.512V60.596H135.498ZM136.608 60.47L136.212 60.41L137.466 58.85H137.928L136.608 60.47ZM139.875 62.03C139.571 62.03 139.297 61.962 139.053 61.826C138.813 61.686 138.623 61.496 138.483 61.256C138.343 61.012 138.273 60.734 138.273 60.422C138.273 60.106 138.343 59.828 138.483 59.588C138.623 59.348 138.813 59.16 139.053 59.024C139.293 58.888 139.567 58.82 139.875 58.82C140.187 58.82 140.463 58.888 140.703 59.024C140.947 59.16 141.137 59.348 141.273 59.588C141.413 59.828 141.483 60.106 141.483 60.422C141.483 60.734 141.413 61.012 141.273 61.256C141.137 61.496 140.947 61.686 140.703 61.826C140.459 61.962 140.183 62.03 139.875 62.03ZM139.875 61.652C140.103 61.652 140.305 61.602 140.481 61.502C140.657 61.398 140.795 61.254 140.895 61.07C140.999 60.882 141.051 60.666 141.051 60.422C141.051 60.174 140.999 59.958 140.895 59.774C140.795 59.59 140.657 59.448 140.481 59.348C140.305 59.244 140.105 59.192 139.881 59.192C139.657 59.192 139.457 59.244 139.281 59.348C139.105 59.448 138.965 59.59 138.861 59.774C138.757 59.958 138.705 60.174 138.705 60.422C138.705 60.666 138.757 60.882 138.861 61.07C138.965 61.254 139.105 61.398 139.281 61.502C139.457 61.602 139.655 61.652 139.875 61.652ZM142.393 62V58.85H143.785C144.141 58.85 144.421 58.918 144.625 59.054C144.833 59.19 144.937 59.39 144.937 59.654C144.937 59.91 144.839 60.108 144.643 60.248C144.447 60.384 144.189 60.452 143.869 60.452L143.953 60.326C144.329 60.326 144.605 60.396 144.781 60.536C144.957 60.676 145.045 60.878 145.045 61.142C145.045 61.414 144.945 61.626 144.745 61.778C144.549 61.926 144.243 62 143.827 62H142.393ZM142.807 61.664H143.809C144.077 61.664 144.279 61.622 144.415 61.538C144.555 61.45 144.625 61.31 144.625 61.118C144.625 60.926 144.563 60.786 144.439 60.698C144.315 60.61 144.119 60.566 143.851 60.566H142.807V61.664ZM142.807 60.248H143.755C143.999 60.248 144.185 60.202 144.313 60.11C144.445 60.018 144.511 59.884 144.511 59.708C144.511 59.532 144.445 59.4 144.313 59.312C144.185 59.224 143.999 59.18 143.755 59.18H142.807V60.248Z" fill="#1C5182"/>
<path d="M45.1307 16.8852C40.4241 12.1785 34.1554 9.58887 27.4962 9.58887C20.837 9.58887 14.5889 12.1785 9.88226 16.8852C5.17562 21.5918 2.58594 27.8605 2.58594 34.5197C2.58594 41.1789 5.17562 47.4475 9.88226 52.1542C14.5889 56.8608 20.8576 59.4505 27.5168 59.4505C34.1759 59.4505 40.4446 56.8608 45.1513 52.1542C49.8579 47.4475 52.4476 41.1789 52.4476 34.5197C52.4476 27.8605 49.8374 21.5918 45.1307 16.8852Z" fill="#1C5182"/>
<path d="M27.5 7C12.3113 7 0 19.3113 0 34.5C0 49.6886 12.3113 61.9999 27.5 61.9999C42.6886 61.9999 54.9999 49.6886 54.9999 34.5C54.9999 19.3113 42.7092 7 27.5 7ZM27.5 60.4584C13.1745 60.4584 1.54148 48.846 1.54148 34.5C1.54148 20.1539 13.1745 8.56203 27.5 8.56203C41.8254 8.56203 53.4584 20.1745 53.4584 34.5205C53.4584 48.8665 41.846 60.4584 27.5 60.4584Z" fill="#1C5182"/>
<path d="M23.0403 46.6647C23.0403 46.6647 23.169 47.3085 23.0403 47.6947C23.0403 47.6947 23.5553 47.3085 23.0403 46.6647ZM22.2677 46.1175C22.2677 46.1175 22.2677 47.2119 21.3664 47.6626C21.3664 47.6626 22.5574 48.081 22.2677 46.1175ZM21.6561 44.7978C21.6561 44.7978 21.3664 46.3428 18.9201 46.536C18.9201 46.536 21.8815 47.405 21.6561 44.7978ZM21.1089 44.0574C21.1089 44.0574 18.5016 45.1518 16.7635 44.4115C16.7635 44.4437 19.242 46.0531 21.1089 44.0574ZM21.1089 43.1883C21.1089 43.1883 16.345 43.1883 14.8321 41.5467C14.8321 41.5467 16.7635 44.5724 21.1089 43.1883ZM21.1089 41.9973C21.1089 41.9973 16.0231 41.6754 13.3193 37.6519C13.2227 37.7484 15.5725 42.7699 21.1089 41.9973Z" fill="white"/>
<path d="M20.8525 40.6771C20.8525 40.6771 14.8332 39.454 12.2581 34.175C12.2581 34.175 14.3182 40.484 20.8525 40.6771ZM20.1122 39.3896C20.1122 39.3896 13.5135 36.7179 11.7109 30.1836C11.7109 30.1836 12.741 37.8123 20.1122 39.3896Z" fill="white"/>
<path d="M19.7214 38.0389C19.7214 38.0389 12.8974 34.0475 11.9961 26.6119C11.9961 26.5797 11.8996 35.1097 19.7214 38.0389Z" fill="white"/>
<path d="M27.0664 46.665C27.0664 46.665 22.4634 46.6006 22.721 38.8432C22.721 38.8432 22.7853 37.2981 21.4334 36.5578C20.8862 36.2359 20.3712 35.8818 19.9527 35.4633C17.8283 33.4355 12.9678 27.9312 13.4506 21.3003C13.4506 21.3003 11.0364 28.8325 19.5986 37.0728C20.4677 38.0384 21.015 39.2616 21.1115 40.5814C21.2403 42.2874 21.9484 45.3131 24.942 47.18C25.6823 47.5985 26.6158 47.4054 27.0664 46.665ZM31.9591 46.665C31.9591 46.665 31.8304 47.3088 31.9591 47.6951C31.9591 47.6951 31.4441 47.3088 31.9591 46.665ZM32.7638 46.1178C32.7638 46.1178 32.7638 47.2122 33.6651 47.6629C33.6651 47.6629 32.442 48.0813 32.7638 46.1178ZM33.3432 44.7981C33.3432 44.7981 33.6329 46.3431 36.0793 46.5363C36.0793 46.5363 33.1179 47.4054 33.3432 44.7981ZM33.8905 44.0577C33.8905 44.0577 36.4977 45.1522 38.2359 44.4118C38.2359 44.444 35.7896 46.0534 33.8905 44.0577ZM33.8905 43.1886C33.8905 43.1886 38.6544 43.1886 40.1673 41.547C40.1673 41.547 38.2359 44.5728 33.8905 43.1886ZM33.8905 41.9977C33.8905 41.9977 38.9763 41.6758 41.6801 37.6522C41.7123 37.7166 39.3303 42.7702 33.8905 41.9977Z" fill="white"/>
<path d="M34.1836 40.6779C34.1836 40.6779 40.2029 39.4547 42.778 34.1758C42.7458 34.1758 40.6857 40.4848 34.1836 40.6779Z" fill="white"/>
<path d="M34.8867 39.3896C34.8867 39.3896 41.4854 36.7179 43.288 30.1836C43.288 30.1836 42.2579 37.8123 34.8867 39.3896Z" fill="white"/>
<path d="M35.2773 38.0389C35.2773 38.0389 42.1014 34.0475 43.0026 26.6119C43.0026 26.5797 43.0992 35.1097 35.2773 38.0389Z" fill="white"/>
<path d="M27.9688 46.665C27.9688 46.665 32.5717 46.6006 32.3142 38.8432C32.3142 38.8432 32.2499 37.2981 33.6018 36.5578C34.149 36.2359 34.664 35.8818 35.0825 35.4633C37.1747 33.4355 42.0352 27.9312 41.5524 21.3003C41.5524 21.3003 43.9666 28.8325 35.4044 37.0728C34.5353 38.0384 33.988 39.2616 33.8915 40.5814C33.7627 42.2874 33.0546 45.3131 30.061 47.18C29.3207 47.5985 28.3872 47.4054 27.9688 46.665Z" fill="white"/>
<circle cx="27.5028" cy="34.4994" r="25.0356" stroke="white" stroke-width="1.2"/>
</svg>
